<?xml version="1.0" encoding="utf-8"?>
<!-- Generator: Adobe Illustrator 27.1.1, SVG Export Plug-In . SVG Version: 6.00 Build 0)  -->
<svg version="1.1" xmlns="http://www.w3.org/2000/svg" xmlns:xlink="http://www.w3.org/1999/xlink" x="0px" y="0px"
	 viewBox="0 0 1920 1080" style="enable-background:new 0 0 1920 1080;" xml:space="preserve">
<style type="text/css">
	.st0{fill:#E1E4EB;stroke:#E1E4EB;stroke-width:3;stroke-miterlimit:10;}
	.st1{fill:#CBD0DB;stroke:#CBD0DB;stroke-width:3;stroke-linejoin:round;stroke-miterlimit:10;}
	.st2{fill:#5F6E8A;}
	.st3{fill:#CBD0DB;stroke:#CBD0DB;stroke-width:3;stroke-miterlimit:10;}
	.st4{fill:none;stroke:#AFB7C7;stroke-width:3;stroke-miterlimit:10;}
	.st5{fill:#62718E;}
	.st6{fill:none;stroke:#8592AB;stroke-width:3;stroke-miterlimit:10;}
	.st7{fill:none;stroke:#AFB7C7;stroke-width:3;stroke-linejoin:round;stroke-miterlimit:10;}
	.st8{fill:none;stroke:#AFB7C7;stroke-width:4;stroke-miterlimit:10;}
	.st9{fill:none;stroke:#62718E;stroke-width:4;stroke-miterlimit:10;}
	.st10{fill:none;stroke:#62718E;stroke-width:3;stroke-linecap:round;stroke-miterlimit:10;}
	.st11{fill:none;stroke:#62718E;stroke-width:3;stroke-miterlimit:10;}
	.st12{fill:none;stroke:#AFB7C7;stroke-width:3;stroke-linecap:round;stroke-miterlimit:10;}
	.st13{fill:none;stroke:#AFB7C7;stroke-linecap:round;stroke-miterlimit:10;}
	.st14{fill:none;stroke:#AFB7C7;stroke-width:3;stroke-linecap:round;stroke-linejoin:round;stroke-miterlimit:10;}
</style>
<g id="Camada_1">
	<rect x="-0.5" y="-0.5" class="st0" width="1920" height="1080"/>
</g>
<g id="área_valves">
	
		<rect x="1547.33" y="883.96" transform="matrix(3.474497e-03 1 -1 3.474497e-03 2490.3308 -668.1352)" class="st1" width="66.14" height="62.94"/>
	<g>
		<g>
			<path class="st2" d="M1565.61,893.98l2.2-3.75h1.64l-3.05,5.1l-2.41,4.13h-1.64L1565.61,893.98z M1565.63,895.55l-0.18-0.31
				l-3.03-5h1.64l2.15,3.63l0.23,0.37l3.15,5.22h-1.64L1565.63,895.55z"/>
			<path class="st2" d="M1569.78,890.23h1.6l2.09,6.7l2.09-6.7h1.6l-3.04,9.23h-1.29L1569.78,890.23z"/>
			<path class="st2" d="M1582.63,895.43v1.45h-4.39v-1.45H1582.63z"/>
			<path class="st2" d="M1585.09,898.87c-0.46-0.46-0.69-1.1-0.69-1.93v-4.2c0-0.83,0.23-1.47,0.69-1.93
				c0.46-0.46,1.13-0.69,2.01-0.69c0.88,0,1.55,0.23,2.01,0.69s0.69,1.1,0.69,1.94v4.2c0,0.83-0.23,1.47-0.69,1.93
				c-0.46,0.46-1.13,0.69-2.01,0.69C1586.22,899.56,1585.55,899.33,1585.09,898.87z M1588,897.75c0.19-0.24,0.29-0.58,0.29-1.03
				v-3.75c0-0.45-0.1-0.79-0.29-1.03s-0.49-0.36-0.89-0.36s-0.71,0.12-0.9,0.36s-0.29,0.58-0.29,1.03v3.75
				c0,0.45,0.09,0.79,0.29,1.03s0.49,0.36,0.9,0.36S1587.81,897.99,1588,897.75z"/>
			<path class="st2" d="M1592.93,899.26c-0.38-0.2-0.68-0.49-0.92-0.87c-0.23-0.38-0.38-0.84-0.44-1.37v-0.01h1.52v0.01
				c0.04,0.34,0.16,0.6,0.36,0.79c0.2,0.19,0.46,0.28,0.78,0.28c0.36,0,0.64-0.12,0.83-0.36c0.2-0.24,0.29-0.57,0.29-1.01v-0.77
				c0-0.43-0.09-0.77-0.28-1c-0.19-0.24-0.45-0.36-0.8-0.36c-0.24,0-0.45,0.06-0.64,0.19c-0.19,0.13-0.34,0.3-0.45,0.53h-1.4v-5.08
				h4.83v1.45h-3.31v1.85c0.14-0.13,0.32-0.23,0.54-0.3c0.21-0.07,0.43-0.11,0.64-0.11c0.5,0,0.93,0.11,1.29,0.33
				c0.36,0.22,0.63,0.54,0.82,0.96c0.19,0.42,0.28,0.93,0.28,1.53v0.77c0,0.6-0.11,1.11-0.31,1.53c-0.21,0.42-0.51,0.75-0.91,0.97
				c-0.4,0.22-0.88,0.33-1.43,0.33C1593.74,899.56,1593.31,899.46,1592.93,899.26z"/>
		</g>
	</g>
	
		<rect x="520.75" y="860.73" transform="matrix(3.474498e-03 1 -1 3.474498e-03 1443.7183 335.6499)" class="st3" width="65.39" height="62.94"/>
	<g>
		<g>
			<path class="st2" d="M539.69,913.11l2.2-3.75h1.64l-3.05,5.1l-2.41,4.13h-1.64L539.69,913.11z M539.71,914.67l-0.18-0.31l-3.03-5
				h1.64l2.15,3.63l0.23,0.37l3.15,5.22h-1.64L539.71,914.67z"/>
			<path class="st2" d="M543.86,909.36h1.6l2.09,6.7l2.09-6.7h1.6l-3.04,9.23h-1.29L543.86,909.36z"/>
			<path class="st2" d="M556.71,914.56V916h-4.39v-1.45H556.71z"/>
			<path class="st2" d="M559.17,917.99c-0.46-0.46-0.69-1.1-0.69-1.93v-4.2c0-0.83,0.23-1.47,0.69-1.93s1.13-0.69,2.01-0.69
				c0.88,0,1.55,0.23,2.01,0.69c0.46,0.46,0.69,1.1,0.69,1.94v4.2c0,0.83-0.23,1.47-0.69,1.93s-1.13,0.69-2.01,0.69
				C560.3,918.68,559.63,918.45,559.17,917.99z M562.08,916.87c0.19-0.24,0.29-0.58,0.29-1.03v-3.75c0-0.45-0.1-0.79-0.29-1.03
				s-0.49-0.36-0.9-0.36s-0.7,0.12-0.9,0.36s-0.29,0.58-0.29,1.03v3.75c0,0.45,0.1,0.79,0.29,1.03s0.49,0.36,0.9,0.36
				S561.89,917.11,562.08,916.87z"/>
			<path class="st2" d="M566.71,918.39c-0.41-0.19-0.75-0.48-0.99-0.85c-0.25-0.37-0.4-0.82-0.44-1.34h1.56
				c0.03,0.23,0.1,0.42,0.21,0.57s0.24,0.26,0.41,0.34s0.37,0.11,0.59,0.11c0.38,0,0.67-0.1,0.88-0.31s0.31-0.5,0.31-0.87v-0.25
				c0-0.41-0.09-0.72-0.28-0.94c-0.18-0.22-0.45-0.33-0.79-0.33h-0.72v-1.45h0.72c0.29,0,0.52-0.1,0.68-0.29
				c0.16-0.19,0.24-0.46,0.24-0.81v-0.22c0-0.33-0.09-0.58-0.26-0.75c-0.17-0.18-0.41-0.26-0.73-0.26c-0.19,0-0.36,0.04-0.51,0.12
				c-0.15,0.08-0.28,0.2-0.38,0.37s-0.18,0.36-0.23,0.6h-1.55c0.07-0.53,0.22-0.99,0.47-1.38c0.24-0.38,0.56-0.68,0.94-0.88
				c0.38-0.2,0.82-0.3,1.3-0.3c0.8,0,1.43,0.21,1.87,0.63c0.44,0.42,0.66,1.01,0.66,1.77v0.22c0,0.44-0.12,0.83-0.35,1.16
				s-0.56,0.57-0.99,0.73c0.47,0.11,0.84,0.35,1.1,0.72c0.26,0.38,0.39,0.85,0.39,1.43v0.22c0,0.54-0.1,1-0.31,1.38
				c-0.21,0.38-0.52,0.67-0.92,0.87s-0.88,0.3-1.45,0.3C567.6,918.68,567.13,918.59,566.71,918.39z"/>
		</g>
	</g>
	
		<rect x="520.57" y="679.56" transform="matrix(3.474498e-03 1 -1 3.474498e-03 1262.1937 155.4645)" class="st3" width="65.05" height="62.94"/>
	
		<rect x="521.34" y="768.48" transform="matrix(3.474498e-03 1 -1 3.474498e-03 1351.9156 243.2875)" class="st3" width="65.1" height="62.94"/>
	<g>
		<g>
			<path class="st2" d="M539.1,779.03l2.2-3.75h1.64l-3.05,5.1l-2.41,4.13h-1.64L539.1,779.03z M539.12,780.59l-0.18-0.31l-3.03-5
				h1.64l2.15,3.63l0.23,0.37l3.15,5.22h-1.64L539.12,780.59z"/>
			<path class="st2" d="M543.27,775.28h1.6l2.09,6.7l2.09-6.7h1.6l-3.04,9.23h-1.29L543.27,775.28z"/>
			<path class="st2" d="M556.12,780.48v1.45h-4.39v-1.45H556.12z"/>
			<path class="st2" d="M558.59,783.91c-0.46-0.46-0.69-1.1-0.69-1.93v-4.2c0-0.83,0.23-1.47,0.69-1.93s1.13-0.69,2.01-0.69
				c0.88,0,1.55,0.23,2.01,0.69c0.46,0.46,0.69,1.1,0.69,1.94v4.2c0,0.83-0.23,1.47-0.69,1.93s-1.13,0.69-2.01,0.69
				C559.72,784.6,559.05,784.37,558.59,783.91z M561.49,782.79c0.19-0.24,0.29-0.58,0.29-1.03v-3.75c0-0.45-0.1-0.79-0.29-1.03
				s-0.49-0.36-0.9-0.36s-0.7,0.12-0.9,0.36s-0.29,0.58-0.29,1.03v3.75c0,0.45,0.1,0.79,0.29,1.03s0.49,0.36,0.9,0.36
				S561.3,783.03,561.49,782.79z"/>
			<path class="st2" d="M564.93,783.16l3.19-4.23c0.17-0.22,0.29-0.44,0.38-0.67c0.09-0.23,0.14-0.45,0.14-0.64v-0.01
				c0-0.31-0.09-0.55-0.28-0.72c-0.19-0.17-0.46-0.25-0.8-0.25c-0.33,0-0.6,0.1-0.81,0.31c-0.21,0.21-0.33,0.5-0.37,0.87v0.01h-1.56
				v-0.01c0.06-0.55,0.21-1.03,0.44-1.42s0.55-0.69,0.94-0.9s0.84-0.31,1.35-0.31c0.56,0,1.04,0.09,1.44,0.28s0.7,0.46,0.91,0.82
				c0.21,0.36,0.31,0.79,0.31,1.3v0.01c0,0.37-0.07,0.75-0.21,1.13c-0.14,0.38-0.34,0.74-0.59,1.08l-2.48,3.25h3.33v1.45h-5.33
				V783.16z"/>
		</g>
	</g>
	
		<rect x="522.56" y="946.53" transform="matrix(3.474499e-03 1 -1 3.474499e-03 1531.1212 419.5527)" class="st3" width="64.99" height="62.94"/>
	<g>
		<g>
			<path class="st2" d="M539.33,731.77l2.2-3.75h1.64l-3.05,5.1l-2.41,4.13h-1.64L539.33,731.77z M539.35,733.33l-0.18-0.31l-3.03-5
				h1.64l2.15,3.63l0.23,0.37l3.15,5.22h-1.64L539.35,733.33z"/>
			<path class="st2" d="M543.5,728.02h1.6l2.09,6.7l2.09-6.7h1.6l-3.04,9.23h-1.29L543.5,728.02z"/>
			<path class="st2" d="M556.35,733.21v1.45h-4.39v-1.45H556.35z"/>
			<path class="st2" d="M558.82,736.65c-0.46-0.46-0.69-1.1-0.69-1.93v-4.2c0-0.83,0.23-1.47,0.69-1.93s1.13-0.69,2.01-0.69
				c0.88,0,1.55,0.23,2.01,0.69c0.46,0.46,0.69,1.1,0.69,1.94v4.2c0,0.83-0.23,1.47-0.69,1.93s-1.13,0.69-2.01,0.69
				C559.95,737.34,559.28,737.11,558.82,736.65z M561.72,735.53c0.19-0.24,0.29-0.58,0.29-1.03v-3.75c0-0.45-0.1-0.79-0.29-1.03
				s-0.49-0.36-0.9-0.36s-0.7,0.12-0.9,0.36s-0.29,0.58-0.29,1.03v3.75c0,0.45,0.1,0.79,0.29,1.03s0.49,0.36,0.9,0.36
				S561.53,735.77,561.72,735.53z"/>
			<path class="st2" d="M567.66,737.25h-1.52v-7.5l-1.22,0.62v-1.59l1.35-0.75h1.39V737.25z"/>
		</g>
	</g>
	<g>
		<g>
			<path class="st2" d="M540.27,957.13l2.2-3.75h1.64l-3.05,5.1l-2.41,4.13H537L540.27,957.13z M540.29,958.69l-0.18-0.31l-3.03-5
				h1.64l2.15,3.63l0.23,0.37l3.15,5.22h-1.64L540.29,958.69z"/>
			<path class="st2" d="M544.44,953.38h1.6l2.09,6.7l2.09-6.7h1.6l-3.04,9.23h-1.29L544.44,953.38z"/>
			<path class="st2" d="M557.29,958.57v1.45h-4.39v-1.45H557.29z"/>
			<path class="st2" d="M559.75,962.01c-0.46-0.46-0.69-1.1-0.69-1.93v-4.2c0-0.83,0.23-1.47,0.69-1.93s1.13-0.69,2.01-0.69
				c0.88,0,1.55,0.23,2.01,0.69c0.46,0.46,0.69,1.1,0.69,1.94v4.2c0,0.83-0.23,1.47-0.69,1.93s-1.13,0.69-2.01,0.69
				C560.88,962.7,560.21,962.47,559.75,962.01z M562.66,960.89c0.19-0.24,0.29-0.58,0.29-1.03v-3.75c0-0.45-0.1-0.79-0.29-1.03
				s-0.49-0.36-0.9-0.36s-0.7,0.12-0.9,0.36s-0.29,0.58-0.29,1.03v3.75c0,0.45,0.1,0.79,0.29,1.03s0.49,0.36,0.9,0.36
				S562.47,961.13,562.66,960.89z"/>
			<path class="st2" d="M566.11,959.83l2.97-6.45h1.65l-2.89,6.37h4.34v1.43h-6.06V959.83z M569.96,957.18h1.5v5.43h-1.5V957.18z"/>
		</g>
	</g>
</g>
<g id="area_cprss">
	
		<rect x="103.34" y="633.81" transform="matrix(3.474467e-03 1 -1 3.474467e-03 1128.3209 559.6852)" class="st3" width="360" height="424.31"/>
</g>
<g id="Compressores">
	<rect x="243" y="684.5" class="st4" width="188.67" height="144"/>
	<rect x="243.33" y="864" class="st4" width="188.67" height="144"/>
</g>
<g id="Rep_CPRSS">
	<path class="st4" d="M827.55,909.45c18.67,45.07,18.3,58.44,18.3,58.44s-0.36,13.37-17.61,13.1"/>
	<path class="st4" d="M827.55,909.23c-18.06,45.39-17.43,58.8-17.43,58.8s0.63,13.41,18.13,12.96"/>
	<path class="st4" d="M828,908.78c-18.23-45.31-17.74-58.72-17.74-58.72s0.49-13.41,17.74-13.05"/>
	<path class="st4" d="M792,909h36c18.5-45.45,18-58.9,18-58.9s-0.5-13.45-18-13.09"/>
	<rect x="683.5" y="873.5" class="st4" width="108" height="72"/>
</g>
<g id="Area_flap">
	<rect x="612.5" y="72.5" class="st3" width="216" height="361"/>
	<g>
		<g>
			<path class="st5" d="M651.35,91.02h4.9v29.82h-4.9V91.02z M653.4,91.02h17.12v4.7H653.4V91.02z M653.4,103.96h14.87v4.68H653.4
				V103.96z"/>
			<path class="st5" d="M674.83,91.02h4.9v29.82h-4.9V91.02z M677.13,116.14h17.27v4.7h-17.27V116.14z"/>
			<path class="st5" d="M707.24,91.02h3.57l11.2,29.82h-5.27l-7.71-22.21l-7.71,22.21h-5.27L707.24,91.02z M701.31,110.48H717v4.7
				h-15.69V110.48z"/>
			<path class="st5" d="M726.1,91.02h4.9v29.82h-4.9V91.02z M728.46,104.58H738c0.79,0,1.49-0.18,2.08-0.54s1.06-0.88,1.39-1.55
				s0.5-1.44,0.5-2.32c0-0.89-0.16-1.67-0.49-2.34s-0.79-1.19-1.39-1.56s-1.3-0.55-2.09-0.55h-9.54v-4.7h9.39
				c1.82,0,3.42,0.38,4.8,1.14s2.45,1.83,3.22,3.21s1.15,2.98,1.15,4.8s-0.38,3.41-1.15,4.79s-1.84,2.44-3.22,3.19
				s-2.98,1.13-4.8,1.13h-9.39V104.58z"/>
			<path class="st5" d="M757.28,120.73c-1.32-0.28-2.56-0.69-3.71-1.24s-2.21-1.22-3.17-2.03l2.6-3.92c1.15,0.97,2.44,1.71,3.87,2.2
				s2.94,0.75,4.54,0.75c2,0,3.54-0.36,4.65-1.07s1.65-1.72,1.65-3.01v-0.02c0-0.92-0.25-1.64-0.74-2.18s-1.13-0.94-1.93-1.19
				s-1.81-0.49-3.06-0.71c-0.04-0.01-0.08-0.02-0.12-0.02s-0.08-0.01-0.12-0.02l-0.37-0.06c-2-0.33-3.64-0.72-4.92-1.17
				s-2.38-1.26-3.28-2.42s-1.35-2.81-1.35-4.94v-0.02c0-1.89,0.42-3.5,1.27-4.84s2.08-2.36,3.69-3.06s3.55-1.05,5.82-1.05
				c1.07,0,2.14,0.12,3.21,0.36s2.13,0.59,3.16,1.05s2.03,1.03,3,1.71l-2.38,4.04c-1.15-0.82-2.32-1.44-3.51-1.87
				s-2.35-0.64-3.49-0.64c-1.89,0-3.35,0.35-4.38,1.04s-1.55,1.66-1.55,2.92v0.02c0,0.94,0.27,1.69,0.8,2.24s1.2,0.95,2,1.2
				s1.92,0.52,3.35,0.81c0.05,0.01,0.11,0.02,0.15,0.03s0.1,0.02,0.15,0.03c0.07,0.01,0.14,0.03,0.23,0.04s0.16,0.03,0.23,0.04
				c1.85,0.37,3.39,0.81,4.62,1.33s2.27,1.35,3.11,2.5s1.25,2.71,1.25,4.7v0.04c0,1.86-0.44,3.45-1.31,4.78s-2.15,2.33-3.81,3.02
				s-3.68,1.04-6.03,1.04C759.98,121.15,758.6,121.01,757.28,120.73z"/>
		</g>
	</g>
</g>
<g id="Ventiladores">
	<rect x="71.5" y="72.5" class="st3" width="342" height="549"/>
</g>
<g id="tubo">
	
		<rect x="1049.2" y="188.9" transform="matrix(3.474518e-03 1 -1 3.474518e-03 1355.89 -830.8702)" class="st3" width="91.25" height="151.93"/>
	<line class="st6" x1="1032.67" y1="262.07" x2="1032.67" y2="299.84"/>
	<circle class="st6" cx="1032.67" cy="256.13" r="6.29"/>
	<g>
		<g>
			<path class="st2" d="M1027.75,227.35h1.52v9.23h-1.52V227.35z M1028.48,231.55h2.95c0.25,0,0.46-0.06,0.64-0.17
				c0.18-0.11,0.33-0.27,0.43-0.48c0.1-0.21,0.16-0.45,0.16-0.72c0-0.28-0.05-0.52-0.15-0.72s-0.25-0.37-0.43-0.48
				c-0.19-0.11-0.4-0.17-0.65-0.17h-2.95v-1.45h2.91c0.56,0,1.06,0.12,1.49,0.35c0.43,0.23,0.76,0.57,1,0.99
				c0.24,0.43,0.36,0.92,0.36,1.49s-0.12,1.06-0.36,1.48c-0.24,0.42-0.57,0.75-1,0.99c-0.43,0.23-0.92,0.35-1.49,0.35h-2.91V231.55z
				"/>
			<path class="st2" d="M1037.33,236.58h-1.55v-9.23h1.55V236.58z"/>
			<path class="st2" d="M1038.16,227.35h6.64v1.45h-6.64V227.35z M1040.72,228.11h1.51v8.47h-1.51V228.11z"/>
			<path class="st2" d="M1049.95,232.55V234h-4.39v-1.45H1049.95z"/>
			<path class="st2" d="M1052.42,235.98c-0.46-0.46-0.69-1.1-0.69-1.93v-4.2c0-0.83,0.23-1.47,0.69-1.93
				c0.46-0.46,1.13-0.69,2.01-0.69c0.88,0,1.55,0.23,2.01,0.69c0.46,0.46,0.69,1.1,0.69,1.94v4.2c0,0.83-0.23,1.47-0.69,1.93
				c-0.46,0.46-1.13,0.69-2.01,0.69C1053.55,236.68,1052.88,236.45,1052.42,235.98z M1055.32,234.86c0.19-0.24,0.29-0.58,0.29-1.03
				v-3.75c0-0.45-0.09-0.79-0.29-1.03s-0.49-0.36-0.9-0.36s-0.7,0.12-0.89,0.36s-0.29,0.58-0.29,1.03v3.75
				c0,0.45,0.1,0.79,0.29,1.03s0.49,0.36,0.89,0.36S1055.13,235.1,1055.32,234.86z"/>
			<path class="st2" d="M1061.26,236.58h-1.52v-7.5l-1.22,0.62v-1.59l1.35-0.75h1.39V236.58z"/>
		</g>
	</g>
	
		<rect x="469.72" y="191.03" transform="matrix(3.474518e-03 1 -1 3.474518e-03 780.5556 -249.2724)" class="st3" width="91.25" height="151.93"/>
	<line class="st6" x1="453.2" y1="264.21" x2="453.2" y2="301.97"/>
	<circle class="st6" cx="453.2" cy="258.26" r="6.29"/>
	<g>
		<g>
			<path class="st2" d="M448.27,229.48h1.52v9.23h-1.52V229.48z M449,233.68h2.95c0.25,0,0.46-0.06,0.64-0.17
				c0.18-0.11,0.33-0.27,0.43-0.48c0.1-0.21,0.16-0.45,0.16-0.72c0-0.28-0.05-0.52-0.15-0.72s-0.25-0.37-0.43-0.48
				s-0.4-0.17-0.65-0.17H449v-1.45h2.91c0.56,0,1.06,0.12,1.49,0.35c0.43,0.23,0.76,0.57,1,0.99s0.36,0.92,0.36,1.49
				s-0.12,1.06-0.36,1.48c-0.24,0.42-0.57,0.75-1,0.99c-0.43,0.23-0.92,0.35-1.49,0.35H449V233.68z"/>
			<path class="st2" d="M457.85,238.71h-1.55v-9.23h1.55V238.71z"/>
			<path class="st2" d="M458.68,229.48h6.64v1.45h-6.64V229.48z M461.24,230.24h1.51v8.47h-1.51V230.24z"/>
			<path class="st2" d="M470.47,234.68v1.45h-4.39v-1.45H470.47z"/>
			<path class="st2" d="M472.94,238.12c-0.46-0.46-0.69-1.1-0.69-1.93v-4.2c0-0.83,0.23-1.47,0.69-1.93s1.13-0.69,2.01-0.69
				c0.88,0,1.55,0.23,2.01,0.69c0.46,0.46,0.69,1.1,0.69,1.94v4.2c0,0.83-0.23,1.47-0.69,1.93s-1.13,0.69-2.01,0.69
				C474.07,238.81,473.4,238.58,472.94,238.12z M475.84,237c0.19-0.24,0.29-0.58,0.29-1.03v-3.75c0-0.45-0.1-0.79-0.29-1.03
				s-0.49-0.36-0.9-0.36s-0.7,0.12-0.9,0.36s-0.29,0.58-0.29,1.03v3.75c0,0.45,0.1,0.79,0.29,1.03s0.49,0.36,0.9,0.36
				S475.65,237.23,475.84,237z"/>
			<path class="st2" d="M480.48,238.51c-0.41-0.19-0.75-0.48-0.99-0.85c-0.25-0.37-0.4-0.82-0.44-1.34h1.56
				c0.03,0.23,0.1,0.42,0.21,0.57s0.24,0.26,0.41,0.34s0.37,0.11,0.59,0.11c0.38,0,0.67-0.1,0.88-0.31s0.31-0.5,0.31-0.87v-0.25
				c0-0.41-0.09-0.72-0.28-0.94c-0.18-0.22-0.45-0.33-0.79-0.33h-0.72v-1.45h0.72c0.29,0,0.52-0.1,0.68-0.29
				c0.16-0.19,0.24-0.46,0.24-0.81v-0.22c0-0.33-0.09-0.58-0.26-0.75c-0.17-0.18-0.41-0.26-0.73-0.26c-0.19,0-0.36,0.04-0.51,0.12
				c-0.15,0.08-0.28,0.2-0.38,0.37s-0.18,0.36-0.23,0.6h-1.55c0.07-0.53,0.22-0.99,0.47-1.38c0.24-0.38,0.56-0.68,0.94-0.88
				c0.38-0.2,0.82-0.3,1.3-0.3c0.8,0,1.43,0.21,1.87,0.63c0.44,0.42,0.66,1.01,0.66,1.77V232c0,0.44-0.12,0.83-0.35,1.16
				s-0.56,0.57-0.99,0.73c0.47,0.11,0.84,0.35,1.1,0.72c0.26,0.38,0.39,0.85,0.39,1.43v0.22c0,0.54-0.1,1-0.31,1.38
				c-0.21,0.38-0.52,0.67-0.92,0.87s-0.88,0.3-1.45,0.3C481.37,238.81,480.89,238.71,480.48,238.51z"/>
		</g>
	</g>
	<line class="st7" x1="1300.52" y1="938.43" x2="1300.52" y2="914.43"/>
	<line class="st7" x1="1327.79" y1="914.43" x2="1327.79" y2="938.43"/>
	<ellipse class="st7" cx="1313.92" cy="926.43" rx="13.07" ry="12"/>
	<g>
		<g>
			<path class="st2" d="M1308.08,922h1.6l2.09,6.7l2.09-6.7h1.6l-3.04,9.23h-1.29L1308.08,922z"/>
			<path class="st2" d="M1317.52,931.04c-0.42-0.19-0.75-0.48-0.99-0.85c-0.25-0.37-0.4-0.82-0.44-1.34h1.55
				c0.03,0.23,0.1,0.42,0.21,0.57c0.11,0.15,0.24,0.26,0.41,0.34c0.17,0.08,0.37,0.11,0.59,0.11c0.38,0,0.67-0.1,0.88-0.31
				c0.21-0.21,0.31-0.5,0.31-0.87v-0.25c0-0.41-0.09-0.72-0.28-0.94c-0.18-0.22-0.45-0.33-0.79-0.33h-0.72v-1.45h0.72
				c0.29,0,0.52-0.1,0.68-0.29c0.16-0.19,0.24-0.46,0.24-0.81v-0.22c0-0.33-0.09-0.58-0.26-0.75c-0.17-0.18-0.41-0.26-0.73-0.26
				c-0.19,0-0.36,0.04-0.51,0.12c-0.15,0.08-0.28,0.2-0.38,0.37c-0.11,0.16-0.18,0.36-0.23,0.6h-1.55c0.07-0.53,0.22-0.99,0.47-1.38
				c0.24-0.38,0.56-0.68,0.94-0.88c0.38-0.2,0.82-0.3,1.3-0.3c0.8,0,1.43,0.21,1.87,0.63s0.66,1.01,0.66,1.77v0.22
				c0,0.44-0.12,0.83-0.35,1.16c-0.23,0.33-0.56,0.57-0.99,0.73c0.47,0.11,0.84,0.35,1.1,0.72c0.26,0.38,0.39,0.85,0.39,1.43v0.22
				c0,0.54-0.1,1-0.31,1.38c-0.21,0.38-0.52,0.67-0.92,0.87c-0.4,0.2-0.88,0.3-1.45,0.3
				C1318.41,931.33,1317.93,931.23,1317.52,931.04z"/>
		</g>
	</g>
	<g>
		<g>
			<path class="st2" d="M1292.05,693.35h1.6l2.09,6.7l2.09-6.7h1.6l-3.04,9.23h-1.29L1292.05,693.35z"/>
			<path class="st2" d="M1300.3,701.24l3.19-4.23c0.17-0.22,0.29-0.44,0.38-0.67s0.14-0.45,0.14-0.64v-0.01
				c0-0.31-0.09-0.55-0.28-0.72c-0.19-0.17-0.46-0.25-0.8-0.25c-0.33,0-0.6,0.1-0.81,0.31c-0.21,0.21-0.33,0.5-0.37,0.87v0.01h-1.56
				v-0.01c0.06-0.55,0.21-1.03,0.44-1.42c0.24-0.39,0.55-0.69,0.94-0.9c0.39-0.21,0.84-0.31,1.35-0.31c0.56,0,1.04,0.09,1.44,0.28
				c0.4,0.19,0.7,0.46,0.91,0.82c0.21,0.36,0.31,0.79,0.31,1.3v0.01c0,0.37-0.07,0.75-0.21,1.13c-0.14,0.38-0.34,0.74-0.59,1.08
				l-2.48,3.25h3.33v1.45h-5.33V701.24z"/>
		</g>
	</g>
	<g>
		<g>
			<path class="st2" d="M1218.05,761.35h1.6l2.09,6.7l2.09-6.7h1.6l-3.04,9.23h-1.29L1218.05,761.35z"/>
			<path class="st2" d="M1228.8,770.58h-1.52v-7.5l-1.22,0.62v-1.59l1.35-0.75h1.39V770.58z"/>
		</g>
	</g>
	
		<rect x="703.59" y="698.64" transform="matrix(3.474518e-03 1 -1 3.474518e-03 1521.2183 22.7044)" class="st3" width="91.25" height="151.93"/>
	<g>
		<g>
			<path class="st2" d="M682.14,737.09h1.52v9.23h-1.52V737.09z M682.87,741.29h2.95c0.25,0,0.46-0.06,0.64-0.17
				c0.18-0.11,0.33-0.27,0.43-0.48c0.1-0.21,0.16-0.45,0.16-0.72c0-0.28-0.05-0.52-0.15-0.72s-0.25-0.37-0.43-0.48
				s-0.4-0.17-0.65-0.17h-2.95v-1.45h2.91c0.56,0,1.06,0.12,1.49,0.35c0.43,0.23,0.76,0.57,1,0.99s0.36,0.92,0.36,1.49
				s-0.12,1.06-0.36,1.48c-0.24,0.42-0.57,0.75-1,0.99c-0.43,0.23-0.92,0.35-1.49,0.35h-2.91V741.29z"/>
			<path class="st2" d="M691.72,746.32h-1.55v-9.23h1.55V746.32z"/>
			<path class="st2" d="M692.55,737.09h6.64v1.45h-6.64V737.09z M695.11,737.85h1.51v8.47h-1.51V737.85z"/>
			<path class="st2" d="M704.34,742.29v1.45h-4.39v-1.45H704.34z"/>
			<path class="st2" d="M706.81,745.72c-0.46-0.46-0.69-1.1-0.69-1.93v-4.2c0-0.83,0.23-1.47,0.69-1.93s1.13-0.69,2.01-0.69
				c0.88,0,1.55,0.23,2.01,0.69c0.46,0.46,0.69,1.1,0.69,1.94v4.2c0,0.83-0.23,1.47-0.69,1.93s-1.13,0.69-2.01,0.69
				C707.94,746.42,707.27,746.19,706.81,745.72z M709.71,744.6c0.19-0.24,0.29-0.58,0.29-1.03v-3.75c0-0.45-0.1-0.79-0.29-1.03
				s-0.49-0.36-0.9-0.36s-0.7,0.12-0.9,0.36s-0.29,0.58-0.29,1.03v3.75c0,0.45,0.1,0.79,0.29,1.03s0.49,0.36,0.9,0.36
				S709.52,744.84,709.71,744.6z"/>
			<path class="st2" d="M713.15,744.98l3.19-4.23c0.17-0.22,0.29-0.44,0.38-0.67c0.09-0.23,0.14-0.45,0.14-0.64v-0.01
				c0-0.31-0.09-0.55-0.28-0.72c-0.19-0.17-0.46-0.25-0.8-0.25c-0.33,0-0.6,0.1-0.81,0.31c-0.21,0.21-0.33,0.5-0.37,0.87v0.01h-1.56
				v-0.01c0.06-0.55,0.21-1.03,0.44-1.42s0.55-0.69,0.94-0.9s0.84-0.31,1.35-0.31c0.56,0,1.04,0.09,1.44,0.28s0.7,0.46,0.91,0.82
				c0.21,0.36,0.31,0.79,0.31,1.3v0.01c0,0.37-0.07,0.75-0.21,1.13c-0.14,0.38-0.34,0.74-0.59,1.08l-2.48,3.25h3.33v1.45h-5.33
				V744.98z"/>
		</g>
	</g>
	
		<rect x="703.38" y="591.25" transform="matrix(3.474518e-03 1 -1 3.474518e-03 1413.611 -84.0963)" class="st3" width="91.25" height="151.93"/>
	<line class="st8" x1="711.61" y1="156.57" x2="711.61" y2="143.52"/>
	<line class="st8" x1="710" y1="301.09" x2="710" y2="288.04"/>
	<g>
		<g>
			<path class="st5" d="M263.32,889.12h3.27V909h-3.27V889.12z M265.06,897.61h11.31v3.13h-11.31V897.61z M274.41,889.12h3.27V909
				h-3.27V889.12z"/>
			<path class="st5" d="M282.33,889.12h3.27V909h-3.27V889.12z M283.68,889.12h11.69v3.13h-11.69V889.12z M283.68,897.57h10.19v3.12
				h-10.19V897.57z M283.68,905.87h11.69V909h-11.69V905.87z"/>
			<path class="st5" d="M299.06,889.11h3.27V909h-3.27V889.11z M300.42,897.67h6.85c0.46,0,0.86-0.11,1.21-0.33
				c0.35-0.22,0.62-0.54,0.81-0.95s0.29-0.89,0.3-1.44c0-0.54-0.1-1.01-0.29-1.42s-0.46-0.73-0.81-0.95
				c-0.35-0.22-0.76-0.33-1.22-0.33h-6.85v-3.13h6.95c1.12,0,2.11,0.24,2.95,0.72s1.51,1.17,1.98,2.05c0.47,0.88,0.7,1.91,0.7,3.06
				c0,1.17-0.23,2.19-0.7,3.08c-0.47,0.88-1.13,1.57-1.98,2.05c-0.85,0.48-1.83,0.72-2.95,0.72h-6.95V897.67z M305.21,900.18
				l3.39-0.63l5.22,9.45h-3.92L305.21,900.18z"/>
			<path class="st5" d="M330.71,889.12h3.77V909h-3.06v-15.16l0.14,0.88l-4.35,11.8h-2.62l-4.35-11.53l0.14-1.15V909h-3.06v-19.88
				h3.77l4.81,13.26L330.71,889.12z"/>
			<path class="st5" d="M339.13,889.12h3.27V909h-3.27V889.12z M340.49,889.12h11.69v3.13h-11.69V889.12z M340.49,897.57h10.19v3.12
				h-10.19V897.57z M340.49,905.87h11.69V909h-11.69V905.87z M344.41,885.87l3.77-3.35l2.15,2.21l-4.03,3.09L344.41,885.87z"/>
			<path class="st5" d="M353.13,889.12h14.3v3.13h-14.3V889.12z M358.66,890.75h3.25V909h-3.25V890.75z"/>
			<path class="st5" d="M372.55,909h-3.34v-19.88h3.34V909z"/>
			<path class="st5" d="M379.95,908.31c-1.06-0.6-1.88-1.45-2.45-2.56c-0.57-1.11-0.85-2.43-0.85-3.95v-5.46
				c0-1.52,0.28-2.84,0.85-3.95c0.57-1.11,1.39-1.97,2.45-2.57c1.06-0.6,2.31-0.9,3.75-0.9c1.19,0,2.28,0.25,3.25,0.77
				s1.78,1.25,2.42,2.21s1.08,2.1,1.32,3.41h-3.36c-0.16-0.64-0.42-1.2-0.78-1.67s-0.78-0.85-1.26-1.1
				c-0.49-0.25-1.01-0.38-1.58-0.38c-0.76,0-1.41,0.17-1.96,0.51c-0.55,0.34-0.98,0.83-1.28,1.46s-0.45,1.37-0.45,2.23v5.46
				c0,0.86,0.15,1.6,0.45,2.23s0.73,1.11,1.28,1.45c0.55,0.34,1.21,0.51,1.96,0.51c0.57,0,1.1-0.12,1.59-0.37
				c0.49-0.25,0.91-0.61,1.26-1.08s0.61-1.04,0.77-1.71h3.36c-0.25,1.31-0.69,2.45-1.33,3.41s-1.45,1.7-2.42,2.21
				s-2.05,0.77-3.23,0.77C382.26,909.21,381.01,908.91,379.95,908.31z"/>
			<path class="st5" d="M397.36,908.3c-1.08-0.61-1.91-1.46-2.5-2.57c-0.59-1.11-0.89-2.39-0.89-3.85v-5.63
				c0-1.46,0.3-2.74,0.89-3.85c0.59-1.11,1.43-1.96,2.5-2.57c1.08-0.61,2.32-0.91,3.73-0.91c1.41,0,2.66,0.3,3.73,0.91
				c1.08,0.61,1.91,1.46,2.5,2.57c0.59,1.11,0.89,2.39,0.89,3.85v5.63c0,1.46-0.3,2.74-0.89,3.85c-0.59,1.11-1.43,1.96-2.5,2.57
				c-1.08,0.61-2.32,0.91-3.73,0.91C399.68,909.21,398.44,908.9,397.36,908.3z M403.07,905.47c0.57-0.33,1.01-0.79,1.32-1.4
				c0.31-0.61,0.46-1.31,0.46-2.1v-5.82c0-0.79-0.16-1.49-0.46-2.1c-0.31-0.61-0.75-1.07-1.32-1.4c-0.57-0.33-1.23-0.49-1.98-0.49
				c-0.75,0-1.41,0.16-1.98,0.49c-0.57,0.33-1.01,0.79-1.32,1.4c-0.31,0.61-0.46,1.31-0.46,2.1v5.82c0,0.79,0.15,1.49,0.46,2.1
				c0.31,0.61,0.75,1.07,1.32,1.4c0.57,0.33,1.23,0.49,1.98,0.49C401.84,905.96,402.5,905.8,403.07,905.47z"/>
		</g>
	</g>
	<g>
		<g>
			<path class="st5" d="M269.52,728.89c-1.32-0.28-2.56-0.69-3.71-1.24s-2.21-1.22-3.17-2.03l2.6-3.92
				c1.15,0.97,2.44,1.71,3.87,2.21s2.94,0.75,4.54,0.75c2,0,3.54-0.36,4.65-1.07s1.65-1.72,1.65-3.01v-0.02
				c0-0.92-0.25-1.64-0.74-2.18s-1.13-0.94-1.93-1.19s-1.81-0.49-3.06-0.71c-0.04-0.01-0.08-0.02-0.12-0.02s-0.08-0.01-0.12-0.02
				l-0.37-0.06c-2-0.33-3.64-0.72-4.92-1.17s-2.38-1.26-3.28-2.42s-1.35-2.81-1.35-4.94v-0.02c0-1.89,0.42-3.5,1.27-4.84
				s2.08-2.36,3.69-3.06s3.55-1.05,5.82-1.05c1.07,0,2.14,0.12,3.21,0.36c1.07,0.24,2.13,0.59,3.16,1.05s2.03,1.03,3,1.71
				l-2.38,4.04c-1.15-0.82-2.32-1.44-3.51-1.87s-2.35-0.64-3.49-0.64c-1.89,0-3.35,0.35-4.38,1.04c-1.03,0.69-1.55,1.67-1.55,2.92
				v0.02c0,0.94,0.27,1.69,0.8,2.24s1.2,0.95,2,1.2s1.92,0.52,3.35,0.81c0.05,0.01,0.11,0.02,0.15,0.03
				c0.05,0.01,0.1,0.02,0.15,0.03c0.07,0.01,0.14,0.03,0.23,0.04s0.16,0.03,0.23,0.04c1.85,0.37,3.39,0.81,4.62,1.33
				s2.27,1.35,3.11,2.5s1.25,2.71,1.25,4.7v0.04c0,1.86-0.44,3.45-1.31,4.78s-2.15,2.33-3.81,3.02c-1.67,0.69-3.68,1.04-6.03,1.04
				C272.22,729.31,270.84,729.17,269.52,728.89z"/>
			<path class="st5" d="M294.68,727.96c-1.59-0.9-2.82-2.18-3.67-3.85s-1.28-3.64-1.28-5.93v-8.18c0-2.28,0.43-4.26,1.28-5.93
				s2.08-2.95,3.67-3.86s3.47-1.35,5.63-1.35c1.79,0,3.41,0.38,4.87,1.15s2.67,1.87,3.63,3.31c0.96,1.44,1.62,3.15,1.98,5.12h-5.04
				c-0.25-0.96-0.64-1.79-1.17-2.51c-0.53-0.72-1.17-1.27-1.9-1.65s-1.52-0.57-2.37-0.57c-1.13,0-2.12,0.26-2.94,0.77
				c-0.83,0.51-1.47,1.24-1.92,2.18s-0.68,2.06-0.68,3.34v8.18c0,1.29,0.23,2.4,0.68,3.34s1.09,1.67,1.92,2.17s1.81,0.76,2.94,0.76
				c0.86,0,1.66-0.18,2.39-0.55s1.36-0.91,1.9-1.62s0.92-1.57,1.15-2.56h5.04c-0.37,1.97-1.04,3.67-2,5.12s-2.17,2.55-3.63,3.31
				s-3.07,1.15-4.85,1.15C298.15,729.31,296.28,728.86,294.68,727.96z"/>
			<path class="st5" d="M316.33,699.16h4.9V729h-4.9V699.16z M318.36,712h10.27c0.68,0,1.29-0.17,1.81-0.5
				c0.53-0.33,0.93-0.81,1.22-1.42s0.44-1.33,0.45-2.15c0-0.81-0.14-1.52-0.43-2.13s-0.69-1.09-1.22-1.43
				c-0.53-0.33-1.14-0.5-1.84-0.5h-10.27v-4.7h10.42c1.68,0,3.16,0.36,4.43,1.09s2.26,1.75,2.96,3.08s1.06,2.86,1.06,4.59
				c0,1.75-0.35,3.29-1.06,4.61s-1.7,2.35-2.97,3.08s-2.75,1.09-4.42,1.09h-10.42V712z M325.56,715.77l5.09-0.94l7.83,14.17h-5.89
				L325.56,715.77z"/>
			<path class="st5" d="M348.18,727.94c-1.61-0.91-2.86-2.19-3.75-3.86c-0.89-1.66-1.33-3.58-1.33-5.77v-8.45
				c0-2.19,0.44-4.11,1.33-5.77c0.89-1.66,2.14-2.95,3.75-3.86s3.48-1.36,5.6-1.36s3.99,0.46,5.6,1.36s2.86,2.19,3.75,3.86
				c0.89,1.66,1.33,3.58,1.33,5.77v8.45c0,2.19-0.44,4.11-1.33,5.77c-0.89,1.66-2.14,2.95-3.75,3.86c-1.61,0.91-3.48,1.36-5.6,1.36
				S349.79,728.85,348.18,727.94z M356.74,723.71c0.85-0.49,1.51-1.19,1.98-2.1s0.7-1.96,0.7-3.15v-8.74c0-1.19-0.23-2.24-0.7-3.15
				c-0.46-0.91-1.12-1.61-1.98-2.1s-1.84-0.74-2.96-0.74s-2.11,0.25-2.96,0.74s-1.51,1.19-1.98,2.1c-0.46,0.91-0.7,1.96-0.7,3.15
				v8.74c0,1.19,0.23,2.24,0.7,3.15s1.12,1.61,1.98,2.1s1.84,0.74,2.96,0.74S355.89,724.2,356.74,723.71z"/>
			<path class="st5" d="M370.82,699.18h4.9V729h-4.9V699.18z M373.12,724.3h17.27v4.7h-17.27V724.3z"/>
			<path class="st5" d="M394.9,699.18h4.9V729h-4.9V699.18z M397.19,724.3h17.27v4.7h-17.27V724.3z"/>
		</g>
	</g>
	<g>
		<g>
			<path class="st5" d="M99.41,96.18h5.17l6.75,21.64l6.75-21.64h5.17L113.42,126h-4.18L99.41,96.18z"/>
			<path class="st5" d="M127.14,96.18h4.9V126h-4.9V96.18z M129.17,96.18h17.53v4.7h-17.53V96.18z M129.17,108.86h15.28v4.68h-15.28
				V108.86z M129.17,121.3h17.53v4.7h-17.53V121.3z"/>
			<path class="st5" d="M152.24,96.18h5.33l12.84,22.95l-0.49,0.53V96.18h4.76v29.8h-5.37l-12.8-22.6l0.49-0.53v23.13h-4.76V96.18z"
				/>
			<path class="st5" d="M177.54,96.18H199v4.7h-21.45V96.18z M185.83,98.62h4.88V126h-4.88V98.62z"/>
			<path class="st5" d="M206.67,126h-5V96.18h5V126z"/>
			<path class="st5" d="M213.43,96.18h4.9V126h-4.9V96.18z M215.73,121.3H233v4.7h-17.27V121.3z"/>
			<path class="st5" d="M245.84,96.18h3.57L260.6,126h-5.27l-7.71-22.21L239.91,126h-5.27L245.84,96.18z M239.91,115.64h15.69v4.7
				h-15.69V115.64z"/>
			<path class="st5" d="M264.7,96.18h4.9V126h-4.9V96.18z M267.53,121.3h6.95c2.02,0,3.59-0.51,4.71-1.52s1.67-2.45,1.67-4.31v-8.78
				c0-1.86-0.56-3.29-1.67-4.31s-2.68-1.52-4.71-1.52h-6.95v-4.7h6.83c2.43,0,4.52,0.42,6.24,1.25s3.05,2.05,3.95,3.65
				s1.35,3.53,1.35,5.78v8.45c0,2.2-0.44,4.1-1.33,5.7s-2.2,2.83-3.93,3.69s-3.83,1.29-6.31,1.29h-6.81V121.3z"/>
			<path class="st5" d="M296.74,124.94c-1.61-0.91-2.86-2.19-3.75-3.86s-1.33-3.59-1.33-5.77v-8.45c0-2.19,0.44-4.11,1.33-5.77
				s2.14-2.95,3.75-3.86s3.48-1.36,5.6-1.36s3.99,0.45,5.6,1.36s2.86,2.19,3.75,3.86s1.33,3.59,1.33,5.77v8.45
				c0,2.19-0.44,4.11-1.33,5.77s-2.14,2.95-3.75,3.86s-3.48,1.36-5.6,1.36S298.35,125.85,296.74,124.94z M305.3,120.71
				c0.85-0.49,1.51-1.19,1.98-2.1s0.7-1.96,0.7-3.15v-8.74c0-1.19-0.23-2.24-0.7-3.15s-1.12-1.61-1.98-2.1s-1.84-0.74-2.96-0.74
				s-2.11,0.25-2.96,0.74s-1.51,1.19-1.98,2.1s-0.7,1.96-0.7,3.15v8.74c0,1.19,0.23,2.24,0.7,3.15s1.12,1.61,1.98,2.1
				s1.84,0.74,2.96,0.74S304.44,121.2,305.3,120.71z"/>
			<path class="st5" d="M319.38,96.16h4.9V126h-4.9V96.16z M321.41,109h10.27c0.68,0,1.29-0.17,1.81-0.5s0.93-0.81,1.22-1.43
				s0.44-1.33,0.45-2.15c0-0.81-0.14-1.52-0.43-2.13s-0.69-1.09-1.22-1.43s-1.14-0.5-1.84-0.5h-10.27v-4.7h10.42
				c1.68,0,3.16,0.36,4.43,1.09s2.26,1.75,2.96,3.08s1.06,2.86,1.06,4.59c0,1.75-0.35,3.29-1.06,4.61s-1.7,2.35-2.97,3.08
				s-2.75,1.09-4.42,1.09h-10.42V109z M328.61,112.77l5.09-0.94l7.83,14.17h-5.89L328.61,112.77z"/>
			<path class="st5" d="M346.75,96.18h4.9V126h-4.9V96.18z M348.79,96.18h17.53v4.7h-17.53V96.18z M348.79,108.86h15.28v4.68h-15.28
				V108.86z M348.79,121.3h17.53v4.7h-17.53V121.3z"/>
			<path class="st5" d="M376.89,125.89c-1.32-0.28-2.56-0.69-3.71-1.24s-2.21-1.22-3.17-2.03l2.6-3.92c1.15,0.97,2.44,1.71,3.87,2.2
				s2.94,0.75,4.54,0.75c2,0,3.54-0.36,4.65-1.07s1.65-1.72,1.65-3.01v-0.02c0-0.92-0.25-1.64-0.74-2.18s-1.13-0.94-1.93-1.19
				s-1.81-0.49-3.06-0.71c-0.04-0.01-0.08-0.02-0.12-0.02s-0.08-0.01-0.12-0.02l-0.37-0.06c-2-0.33-3.64-0.72-4.92-1.17
				s-2.38-1.26-3.28-2.42s-1.35-2.81-1.35-4.94v-0.02c0-1.89,0.42-3.5,1.27-4.84s2.08-2.36,3.69-3.06s3.55-1.05,5.82-1.05
				c1.07,0,2.14,0.12,3.21,0.36s2.13,0.59,3.16,1.05s2.03,1.03,3,1.71l-2.38,4.04c-1.15-0.82-2.32-1.44-3.51-1.87
				s-2.35-0.64-3.49-0.64c-1.89,0-3.35,0.35-4.38,1.04s-1.55,1.66-1.55,2.92v0.02c0,0.94,0.27,1.69,0.8,2.24s1.2,0.95,2,1.2
				s1.92,0.52,3.35,0.81c0.05,0.01,0.11,0.02,0.15,0.03s0.1,0.02,0.15,0.03c0.07,0.01,0.14,0.03,0.23,0.04s0.16,0.03,0.23,0.04
				c1.85,0.37,3.39,0.81,4.62,1.33s2.27,1.35,3.11,2.5s1.25,2.71,1.25,4.7v0.04c0,1.86-0.44,3.45-1.31,4.78s-2.15,2.33-3.81,3.02
				s-3.68,1.04-6.03,1.04C379.59,126.31,378.21,126.17,376.89,125.89z"/>
		</g>
	</g>
	<rect x="255.04" y="935.5" class="st4" width="165" height="63"/>
	<rect x="255.62" y="755.5" class="st4" width="162.75" height="63"/>
	<line class="st6" x1="686.85" y1="664.42" x2="686.85" y2="702.18"/>
	<circle class="st6" cx="686.85" cy="658.48" r="6.29"/>
	<line class="st6" x1="687.03" y1="772.24" x2="687.03" y2="810"/>
	<circle class="st6" cx="687.03" cy="766.29" r="6.29"/>
	<path class="st4" d="M281.26,379.82c16.22,18.25,23.06,44.19,18.2,68.09c-4.6,22.65-19.86,42.59-40.19,53.46
		c-22.42,11.99-50.37,11.88-72.91,0.24c-20.54-10.61-35.64-30.59-40.51-53.16c-5.15-23.88,1.53-49.74,17.63-68.12
		c2.22-2.53,4.86-4.66,7.13-7.15c5.76-6.28,5.93-6.46,5.93-6.46c22.01-22.01,43.83-43.83,65.65-65.65"/>
	<path class="st4" d="M242.18,301.09"/>
	<path class="st4" d="M281.45,379.64C360,301.09,360,301.09,360,301.09h94.5h758.85V144H144v157.09h99"/>
	<g>
		<g>
			<path class="st2" d="M681.93,629.7h1.52v9.23h-1.52V629.7z M682.66,633.9h2.95c0.25,0,0.46-0.06,0.64-0.17
				c0.18-0.11,0.33-0.27,0.43-0.48c0.1-0.21,0.16-0.45,0.16-0.72c0-0.28-0.05-0.52-0.15-0.72s-0.25-0.37-0.43-0.48
				s-0.4-0.17-0.65-0.17h-2.95v-1.45h2.91c0.56,0,1.06,0.12,1.49,0.35c0.43,0.23,0.76,0.57,1,0.99s0.36,0.92,0.36,1.49
				s-0.12,1.06-0.36,1.48c-0.24,0.42-0.57,0.75-1,0.99c-0.43,0.23-0.92,0.35-1.49,0.35h-2.91V633.9z"/>
			<path class="st2" d="M691.51,638.93h-1.55v-9.23h1.55V638.93z"/>
			<path class="st2" d="M692.33,629.7h6.64v1.45h-6.64V629.7z M694.9,630.46h1.51v8.47h-1.51V630.46z"/>
			<path class="st2" d="M704.12,634.9v1.45h-4.39v-1.45H704.12z"/>
			<path class="st2" d="M706.59,638.33c-0.46-0.46-0.69-1.1-0.69-1.93v-4.2c0-0.83,0.23-1.47,0.69-1.93s1.13-0.69,2.01-0.69
				c0.88,0,1.55,0.23,2.01,0.69c0.46,0.46,0.69,1.1,0.69,1.94v4.2c0,0.83-0.23,1.47-0.69,1.93s-1.13,0.69-2.01,0.69
				C707.72,639.03,707.05,638.79,706.59,638.33z M709.49,637.21c0.19-0.24,0.29-0.58,0.29-1.03v-3.75c0-0.45-0.1-0.79-0.29-1.03
				s-0.49-0.36-0.9-0.36s-0.7,0.12-0.9,0.36s-0.29,0.58-0.29,1.03v3.75c0,0.45,0.1,0.79,0.29,1.03s0.49,0.36,0.9,0.36
				S709.3,637.45,709.49,637.21z"/>
			<path class="st2" d="M715.43,638.93h-1.52v-7.5l-1.22,0.62v-1.59l1.35-0.75h1.39V638.93z"/>
		</g>
	</g>
</g>
<g id="termometro">
	
		<rect x="879.01" y="699.25" transform="matrix(3.474518e-03 1 -1 3.474518e-03 1696.6301 -152.1006)" class="st3" width="91.25" height="151.93"/>
	<g>
		<g>
			<path class="st2" d="M960.62,731.84h6.64v1.45h-6.64V731.84z M963.18,732.59h1.51v8.47h-1.51V732.59z"/>
			<path class="st2" d="M969.63,741.07h-1.55v-9.23h1.55V741.07z"/>
			<path class="st2" d="M970.46,731.84h6.64v1.45h-6.64V731.84z M973.02,732.59h1.51v8.47h-1.51V732.59z"/>
			<path class="st2" d="M982.25,737.04v1.45h-4.39v-1.45H982.25z"/>
			<path class="st2" d="M984.72,740.47c-0.46-0.46-0.69-1.1-0.69-1.93v-4.2c0-0.83,0.23-1.47,0.69-1.93
				c0.46-0.46,1.13-0.69,2.01-0.69c0.88,0,1.55,0.23,2.01,0.69c0.46,0.46,0.69,1.1,0.69,1.94v4.2c0,0.83-0.23,1.47-0.69,1.93
				c-0.46,0.46-1.13,0.69-2.01,0.69C985.85,741.16,985.18,740.93,984.72,740.47z M987.62,739.35c0.19-0.24,0.29-0.58,0.29-1.03
				v-3.75c0-0.45-0.09-0.79-0.29-1.03s-0.49-0.36-0.9-0.36s-0.7,0.12-0.89,0.36s-0.29,0.58-0.29,1.03v3.75
				c0,0.45,0.1,0.79,0.29,1.03s0.49,0.36,0.89,0.36S987.43,739.59,987.62,739.35z"/>
			<path class="st2" d="M991.06,739.72l3.19-4.23c0.17-0.22,0.29-0.44,0.38-0.67c0.09-0.23,0.14-0.45,0.14-0.64v-0.01
				c0-0.31-0.09-0.55-0.28-0.72s-0.46-0.25-0.8-0.25c-0.33,0-0.6,0.1-0.81,0.31s-0.33,0.5-0.37,0.87v0.01h-1.56v-0.01
				c0.06-0.55,0.21-1.03,0.44-1.42c0.24-0.39,0.55-0.69,0.94-0.9c0.39-0.21,0.84-0.31,1.35-0.31c0.56,0,1.04,0.09,1.44,0.28
				c0.4,0.19,0.7,0.46,0.91,0.82c0.21,0.36,0.31,0.79,0.31,1.3v0.01c0,0.37-0.07,0.75-0.21,1.13s-0.34,0.74-0.59,1.08l-2.48,3.25
				h3.33v1.45h-5.33V739.72z"/>
		</g>
	</g>
	<g>
		<path class="st5" d="M960.89,760.83c-0.6,0-1.06,0.16-1.38,0.48c-0.33,0.32-0.49,0.77-0.49,1.36v0.83c0,0.58,0.16,1.03,0.49,1.35
			c0.32,0.32,0.79,0.48,1.38,0.48s1.06-0.16,1.38-0.48s0.49-0.77,0.49-1.35v-0.82c0-0.58-0.16-1.04-0.49-1.36
			S961.49,760.83,960.89,760.83z M961.36,763.45c0,0.18-0.04,0.33-0.12,0.43s-0.2,0.15-0.35,0.15c-0.16,0-0.27-0.05-0.35-0.15
			s-0.12-0.24-0.12-0.43v-0.76c0-0.18,0.04-0.33,0.12-0.42c0.08-0.1,0.2-0.15,0.35-0.15c0.15,0,0.27,0.05,0.35,0.14
			s0.12,0.23,0.12,0.41V763.45z"/>
		<path class="st5" d="M969.83,767.95c-0.08,0.34-0.21,0.64-0.4,0.88c-0.18,0.24-0.4,0.43-0.65,0.56c-0.25,0.13-0.53,0.19-0.82,0.19
			c-0.39,0-0.73-0.09-1.01-0.26s-0.51-0.42-0.66-0.75c-0.16-0.33-0.23-0.71-0.23-1.15v-2.82c0-0.44,0.08-0.83,0.23-1.15
			c0.16-0.33,0.38-0.58,0.66-0.75s0.62-0.26,1.01-0.26c0.29,0,0.56,0.07,0.82,0.2c0.25,0.13,0.47,0.32,0.65,0.57
			c0.18,0.25,0.32,0.54,0.4,0.87h1.74c-0.12-0.68-0.35-1.27-0.68-1.76c-0.33-0.5-0.75-0.88-1.25-1.14c-0.5-0.26-1.06-0.4-1.68-0.4
			c-0.74,0-1.39,0.16-1.94,0.47c-0.55,0.31-0.97,0.75-1.26,1.33c-0.29,0.57-0.44,1.26-0.44,2.04v2.82c0,0.79,0.15,1.47,0.44,2.04
			c0.29,0.57,0.72,1.02,1.26,1.32c0.55,0.31,1.2,0.46,1.94,0.46c0.61,0,1.17-0.13,1.67-0.4c0.5-0.26,0.92-0.64,1.25-1.14
			c0.33-0.5,0.56-1.08,0.69-1.76H969.83z"/>
		<path class="st5" d="M994.9,764.34c0.57,0,1.03-0.46,1.03-1.03c0-0.57-0.46-1.03-1.03-1.03h-7.11v-1.38h4
			c0.57,0,1.03-0.46,1.03-1.03c0-0.57-0.46-1.03-1.03-1.03h-4v-1.38h7.11c0.57,0,1.03-0.46,1.03-1.03c0-0.57-0.46-1.03-1.03-1.03
			h-7.11v-2.41c0-3.13-2.55-5.68-5.68-5.68c-3.13,0-5.68,2.55-5.68,5.68v31.28c-3.04,1.94-4.91,5.31-4.91,8.94
			c0,5.84,4.75,10.59,10.59,10.59c5.84,0,10.59-4.75,10.59-10.59c0-3.63-1.87-7-4.91-8.94v-6.14h7.11c0.57,0,1.03-0.46,1.03-1.03
			c0-0.57-0.46-1.03-1.03-1.03h-7.11v-1.38h4c0.57,0,1.03-0.46,1.03-1.03c0-0.57-0.46-1.03-1.03-1.03h-4v-1.38h7.11
			c0.57,0,1.03-0.46,1.03-1.03c0-0.57-0.46-1.03-1.03-1.03h-7.11v-1.38h4c0.57,0,1.03-0.46,1.03-1.03c0-0.57-0.46-1.03-1.03-1.03h-4
			v-1.38H994.9z M990.64,793.19c0,4.7-3.83,8.53-8.53,8.53c-4.7,0-8.53-3.83-8.53-8.53c0-3.08,1.68-5.94,4.38-7.45
			c0.33-0.18,0.53-0.53,0.53-0.9v-31.87c0-1.99,1.62-3.62,3.62-3.62c1.99,0,3.62,1.62,3.62,3.62v31.87c0,0.37,0.2,0.72,0.53,0.9
			C988.96,787.25,990.64,790.1,990.64,793.19z"/>
		<path class="st5" d="M983.31,787.07v-34.11c0-0.67-0.54-1.21-1.21-1.21c-0.67,0-1.21,0.54-1.21,1.21v34.11
			c0,0.04,0.01,0.08,0.01,0.12c-2.81,0.56-4.92,3.03-4.92,6c0,3.38,2.74,6.12,6.12,6.12c3.38,0,6.12-2.74,6.12-6.12
			c0-2.97-2.12-5.44-4.92-6C983.31,787.15,983.31,787.11,983.31,787.07z"/>
	</g>
	
		<rect x="878.35" y="591.38" transform="matrix(3.474518e-03 1 -1 3.474518e-03 1588.1116 -258.9435)" class="st3" width="91.25" height="151.93"/>
	<g>
		<g>
			<path class="st2" d="M959.97,624.97h6.64v1.45h-6.64V624.97z M962.53,625.72h1.51v8.47h-1.51V625.72z"/>
			<path class="st2" d="M968.98,634.2h-1.55v-9.23h1.55V634.2z"/>
			<path class="st2" d="M969.8,624.97h6.64v1.45h-6.64V624.97z M972.37,625.72h1.51v8.47h-1.51V625.72z"/>
			<path class="st2" d="M981.6,630.17v1.45h-4.39v-1.45H981.6z"/>
			<path class="st2" d="M984.06,633.6c-0.46-0.46-0.69-1.1-0.69-1.93v-4.2c0-0.83,0.23-1.47,0.69-1.93
				c0.46-0.46,1.13-0.69,2.01-0.69c0.88,0,1.55,0.23,2.01,0.69s0.69,1.1,0.69,1.94v4.2c0,0.83-0.23,1.47-0.69,1.93
				c-0.46,0.46-1.13,0.69-2.01,0.69C985.19,634.29,984.52,634.06,984.06,633.6z M986.97,632.48c0.19-0.24,0.29-0.58,0.29-1.03v-3.75
				c0-0.45-0.1-0.79-0.29-1.03s-0.49-0.36-0.89-0.36s-0.71,0.12-0.9,0.36s-0.29,0.58-0.29,1.03v3.75c0,0.45,0.09,0.79,0.29,1.03
				s0.49,0.36,0.9,0.36S986.78,632.72,986.97,632.48z"/>
			<path class="st2" d="M992.9,634.2h-1.52v-7.5l-1.22,0.62v-1.59l1.35-0.75h1.39V634.2z"/>
		</g>
	</g>
	<g>
		<path class="st5" d="M960.24,658.96c-0.6,0-1.06,0.16-1.38,0.48s-0.49,0.77-0.49,1.36v0.83c0,0.58,0.16,1.03,0.49,1.35
			s0.79,0.48,1.38,0.48c0.6,0,1.06-0.16,1.38-0.48c0.33-0.32,0.49-0.77,0.49-1.35v-0.82c0-0.58-0.16-1.04-0.49-1.36
			C961.3,659.12,960.84,658.96,960.24,658.96z M960.71,661.58c0,0.18-0.04,0.33-0.12,0.43c-0.08,0.1-0.2,0.15-0.35,0.15
			c-0.16,0-0.27-0.05-0.35-0.15s-0.12-0.24-0.12-0.43v-0.76c0-0.18,0.04-0.33,0.12-0.42c0.08-0.1,0.2-0.15,0.35-0.15
			c0.15,0,0.27,0.05,0.35,0.14c0.08,0.1,0.12,0.23,0.12,0.41V661.58z"/>
		<path class="st5" d="M969.18,666.09c-0.08,0.34-0.21,0.64-0.4,0.88s-0.4,0.43-0.65,0.56c-0.25,0.13-0.53,0.19-0.82,0.19
			c-0.39,0-0.73-0.09-1.01-0.26c-0.28-0.17-0.51-0.42-0.66-0.75c-0.16-0.33-0.23-0.71-0.23-1.15v-2.82c0-0.44,0.08-0.83,0.23-1.15
			c0.16-0.33,0.38-0.58,0.66-0.75s0.62-0.26,1.01-0.26c0.29,0,0.56,0.07,0.82,0.2c0.25,0.13,0.47,0.32,0.65,0.57
			c0.18,0.25,0.32,0.54,0.4,0.87h1.74c-0.12-0.68-0.35-1.27-0.68-1.76c-0.33-0.5-0.75-0.88-1.25-1.14c-0.5-0.26-1.06-0.4-1.68-0.4
			c-0.74,0-1.39,0.16-1.94,0.47c-0.55,0.31-0.97,0.75-1.27,1.33c-0.29,0.57-0.44,1.26-0.44,2.04v2.82c0,0.79,0.15,1.47,0.44,2.04
			s0.72,1.02,1.27,1.32c0.55,0.31,1.2,0.46,1.94,0.46c0.61,0,1.17-0.13,1.67-0.4c0.5-0.26,0.92-0.64,1.25-1.14
			c0.33-0.5,0.56-1.08,0.69-1.76H969.18z"/>
		<path class="st5" d="M994.25,662.47c0.57,0,1.03-0.46,1.03-1.03c0-0.57-0.46-1.03-1.03-1.03h-7.11v-1.38h4
			c0.57,0,1.03-0.46,1.03-1.03c0-0.57-0.46-1.03-1.03-1.03h-4v-1.38h7.11c0.57,0,1.03-0.46,1.03-1.03c0-0.57-0.46-1.03-1.03-1.03
			h-7.11v-2.41c0-3.13-2.55-5.68-5.68-5.68c-3.13,0-5.68,2.55-5.68,5.68v31.28c-3.04,1.94-4.91,5.31-4.91,8.94
			c0,5.84,4.75,10.59,10.59,10.59s10.59-4.75,10.59-10.59c0-3.63-1.87-7-4.91-8.94v-6.14h7.11c0.57,0,1.03-0.46,1.03-1.03
			c0-0.57-0.46-1.03-1.03-1.03h-7.11v-1.38h4c0.57,0,1.03-0.46,1.03-1.03c0-0.57-0.46-1.03-1.03-1.03h-4v-1.38h7.11
			c0.57,0,1.03-0.46,1.03-1.03c0-0.57-0.46-1.03-1.03-1.03h-7.11v-1.38h4c0.57,0,1.03-0.46,1.03-1.03c0-0.57-0.46-1.03-1.03-1.03h-4
			v-1.38H994.25z M989.98,691.32c0,4.7-3.82,8.53-8.53,8.53s-8.53-3.83-8.53-8.53c0-3.08,1.68-5.94,4.38-7.45
			c0.33-0.18,0.53-0.53,0.53-0.9V651.1c0-1.99,1.62-3.62,3.62-3.62s3.62,1.62,3.62,3.62v31.87c0,0.37,0.2,0.72,0.53,0.9
			C988.31,685.38,989.98,688.23,989.98,691.32z"/>
		<path class="st5" d="M982.66,685.2V651.1c0-0.67-0.54-1.21-1.21-1.21s-1.21,0.54-1.21,1.21v34.11c0,0.04,0.01,0.08,0.01,0.12
			c-2.81,0.56-4.92,3.03-4.92,6c0,3.38,2.74,6.12,6.12,6.12s6.12-2.74,6.12-6.12c0-2.97-2.12-5.44-4.92-6
			C982.66,685.28,982.66,685.24,982.66,685.2z"/>
	</g>
</g>
<g id="Tubo_vermelho">
	<path class="st4" d="M1836,541.5"/>
	<path class="st6" d="M1116.5,990c0,0,0,0-45.5,0H891c0,0-17.5,0.5-18-9s18-9,18-9h180c0,0,18.5,0.5,18-9s-18-9-18-9H891
		c0,0-17.5,0.5-18-9s18-9,18-9h180c0,0,18.5,0.5,18-9s-18-9-18-9H891c0,0-17.5,0.5-18-9s18-9,18-9h180c0,0,18.5,0.5,18-9s-18-9-18-9
		H891c0,0-17.5,0.5-18-9s18-9,18-9h180c0,0,18.5,0.5,18-9s-18-9-18-9H891c0,0-17.5,0.5-18-9s18-9,18-9h180c0,0,18.5,0.5,18-9
		s-18-9-18-9H855H648"/>
	<line class="st6" x1="540" y1="810" x2="432" y2="810"/>
	<polyline class="st6" points="567,810 584.56,810 648,810 648,990 584.58,990 567,990 	"/>
	<line class="st6" x1="432" y1="990" x2="539.82" y2="990"/>
</g>
<g id="Tubo_azul">
	<path class="st9" d="M610.5,820.75c6.72,0,12.25-4.74,12.25-10.5s-5.53-10.5-12.25-10.5"/>
	<path class="st10" d="M612,702h256.5V565.61V171c0,0-0.4-18.5,7.12-18s7.12,18,7.12,18v144c0,0-0.4,17.5,7.12,18s7.12-18,7.12-18
		V171c0,0-0.4-18.5,7.12-18s7.12,18,7.12,18v144c0,0-0.4,17.5,7.12,18s7.12-18,7.12-18V171c0,0-0.4-18.5,7.12-18s7.12,18,7.12,18
		v144c0,0-0.4,17.5,7.12,18s7.12-18,7.12-18V171c0,0-0.4-18.5,7.12-18s7.12,18,7.12,18v144c0,0-0.4,17.5,7.12,18s7.12-18,7.12-18
		V171c0,0-0.4-18.5,7.12-18s7.12,18,7.12,18v144v275.59l0,7.41h3.95h146.06H1581h75"/>
	<polyline class="st11" points="612,820.75 612,882 581.24,882 567,882 	"/>
	<line class="st11" x1="612" y1="702" x2="612" y2="799.75"/>
	<line class="st11" x1="432" y1="882" x2="539.89" y2="882"/>
	<path class="st11" d="M432,918"/>
	<line class="st11" x1="567" y1="702" x2="612" y2="702"/>
	<path class="st11" d="M558,702"/>
	<line class="st11" x1="432" y1="702" x2="538.65" y2="702"/>
	<path class="st11" d="M963,459"/>
</g>
<g id="tubo_amarelo">
	<path class="st12" d="M1837.43,542c0,0-1.93,0-1.93-2s0-9,0-9"/>
	<polyline class="st13" points="946,336.11 946,531.48 1835.47,531.48 	"/>
	<line class="st7" x1="1667.52" y1="854.42" x2="1643.52" y2="854.42"/>
	<line class="st7" x1="1643.52" y1="827.15" x2="1667.52" y2="827.15"/>
	<ellipse class="st7" cx="1655.52" cy="841.35" rx="12" ry="13.07"/>
	<g>
		<g>
			<path class="st2" d="M1649.48,838.2h1.6l2.09,6.7l2.09-6.7h1.6l-3.04,9.23h-1.29L1649.48,838.2z"/>
			<path class="st2" d="M1657.74,844.66l2.97-6.45h1.65l-2.89,6.37h4.34v1.43h-6.06V844.66z M1661.6,842h1.5v5.43h-1.5V842z"/>
		</g>
	</g>
	<line class="st7" x1="1848.83" y1="727.94" x2="1824.83" y2="727.94"/>
	<line class="st7" x1="1824.83" y1="700.67" x2="1848.83" y2="700.67"/>
	<ellipse class="st7" cx="1836.83" cy="714.87" rx="12" ry="13.07"/>
	<g>
		<g>
			<path class="st2" d="M1830.78,711.72h1.6l2.09,6.7l2.09-6.7h1.6l-3.04,9.23h-1.29L1830.78,711.72z"/>
			<path class="st2" d="M1840.53,720.75c-0.38-0.2-0.68-0.49-0.92-0.87c-0.23-0.38-0.38-0.84-0.44-1.37v-0.01h1.52v0.01
				c0.04,0.34,0.16,0.6,0.36,0.79c0.2,0.19,0.46,0.28,0.78,0.28c0.36,0,0.64-0.12,0.83-0.36c0.2-0.24,0.29-0.57,0.29-1.01v-0.77
				c0-0.43-0.09-0.77-0.28-1c-0.19-0.24-0.45-0.36-0.8-0.36c-0.24,0-0.45,0.06-0.64,0.19s-0.34,0.3-0.45,0.53h-1.4v-5.08h4.83v1.45
				h-3.31v1.85c0.14-0.13,0.32-0.23,0.54-0.3c0.21-0.07,0.43-0.11,0.64-0.11c0.5,0,0.94,0.11,1.29,0.33
				c0.36,0.22,0.63,0.54,0.82,0.96c0.19,0.42,0.28,0.93,0.28,1.53v0.77c0,0.6-0.11,1.11-0.31,1.53c-0.21,0.42-0.51,0.75-0.91,0.97
				c-0.4,0.22-0.88,0.33-1.43,0.33C1841.34,721.05,1840.91,720.95,1840.53,720.75z"/>
		</g>
	</g>
	<line class="st7" x1="1667.83" y1="726.94" x2="1643.83" y2="726.94"/>
	<line class="st7" x1="1643.83" y1="699.67" x2="1667.83" y2="699.67"/>
	<ellipse class="st7" cx="1655.83" cy="713.87" rx="12" ry="13.07"/>
	<g>
		<g>
			<path class="st2" d="M1649.78,710.72h1.6l2.09,6.7l2.09-6.7h1.6l-3.04,9.23h-1.29L1649.78,710.72z"/>
			<path class="st2" d="M1659.2,719.72c-0.39-0.22-0.69-0.54-0.9-0.95c-0.21-0.42-0.31-0.92-0.31-1.51v-0.01
				c0-0.34,0.04-0.7,0.12-1.07c0.08-0.37,0.2-0.75,0.35-1.12c0.03-0.06,0.05-0.13,0.08-0.19s0.06-0.12,0.09-0.18l1.94-3.97h1.68
				l-2.29,4.6l-0.21-0.23c0.11-0.2,0.26-0.35,0.46-0.46s0.44-0.17,0.71-0.17c0.49,0,0.91,0.11,1.26,0.32
				c0.35,0.21,0.62,0.53,0.8,0.94c0.18,0.41,0.28,0.91,0.28,1.49v0.01c0,0.59-0.1,1.1-0.31,1.52c-0.21,0.42-0.51,0.74-0.9,0.96
				c-0.4,0.22-0.87,0.33-1.43,0.33C1660.06,720.05,1659.59,719.94,1659.2,719.72z M1661.45,718.26c0.2-0.22,0.29-0.52,0.29-0.93
				v-0.01c0-0.45-0.1-0.79-0.3-1.04c-0.2-0.24-0.48-0.37-0.86-0.37c-0.35,0-0.62,0.12-0.8,0.37c-0.19,0.25-0.28,0.59-0.28,1.04v0.01
				c0,0.4,0.1,0.71,0.29,0.92c0.19,0.21,0.47,0.32,0.82,0.32C1660.98,718.59,1661.25,718.48,1661.45,718.26z"/>
		</g>
	</g>
	<path class="st12" d="M1836,598v-2.5c0,0,8.97-0.5,9.5-9s-9.5-9-9.5-9s8.97-0.5,9.5-9s-9.5-9-9.5-9s8.97-0.5,9.5-9s-9.5-9-9.5-9"/>
	<line class="st7" x1="1284.5" y1="709.78" x2="1284.5" y2="685.78"/>
	<line class="st7" x1="1311.77" y1="685.78" x2="1311.77" y2="709.78"/>
	<ellipse class="st7" cx="1297.9" cy="697.78" rx="13.07" ry="12"/>
	<line class="st7" x1="1236" y1="777.57" x2="1212" y2="777.57"/>
	<line class="st7" x1="1212" y1="750.3" x2="1236" y2="750.3"/>
	<ellipse class="st7" cx="1223.9" cy="764.5" rx="12" ry="13.07"/>
	<line class="st7" x1="1836" y1="728.13" x2="1836" y2="771.53"/>
	<polyline class="st7" points="1836,598 1836,641.69 1836,677.5 1836,700.67 	"/>
	<polyline class="st7" points="1836,796.24 1836,771.53 1656,771.53 1656,726.5 	"/>
	<polyline class="st7" points="1656,925.94 1836,925.94 1836,895.06 	"/>
	<polyline class="st7" points="1656,829.5 1656,796.24 1836,796.24 1836,820.94 1800,820.94 1818,895.06 1836,895.06 1854,895.06 
		1872,820.94 1836,820.94 	"/>
	<path class="st7" d="M1836.83,700.67"/>
	<path class="st14" d="M1655.83,700.81l0.17-23.31V657c0,0,8.5-0.5,9-9s-9-9-9-9s8.5-0.5,9-9s-9-9-9-9s8.5-0.5,9-9s-9-9-9-9v-4.42"
		/>
	<polyline class="st7" points="1595.65,925.94 1656,925.94 1656,878.5 1656,854.42 	"/>
	<line class="st7" x1="1512" y1="925.94" x2="1565.65" y2="925.94"/>
	<polyline class="st7" points="1368,925.94 1440,925.94 1440,913.59 1512,913.59 1512,938.29 1440,938.29 1440,925.94 	"/>
	<polyline class="st7" points="1311.77,697.41 1323,697.52 1368,697.41 1368,925.94 1338.5,925.94 1326.99,925.94 	"/>
	<polyline class="st7" points="1224,697.75 1269,697.65 1284.84,697.65 	"/>
	<polyline class="st7" points="1260,925.94 1289.5,925.94 1300.86,925.94 	"/>
	<polyline class="st7" points="1223.9,750.3 1224,740.5 1224,697.75 1158.3,697.75 1136.65,697.91 1136.65,990 1116.5,990 	"/>
	<polyline class="st7" points="1224,820.94 1188,820.94 1188,944.47 1260,944.47 1260,820.94 1224,820.94 1224,789.5 1224,777.57 	
		"/>
</g>
</svg>
