<?xml version="1.0" encoding="utf-8"?>
<!-- Generator: Adobe Illustrator 27.1.1, SVG Export Plug-In . SVG Version: 6.00 Build 0)  -->
<svg version="1.1" xmlns="http://www.w3.org/2000/svg" xmlns:xlink="http://www.w3.org/1999/xlink" x="0px" y="0px"
	 viewBox="0 0 1920 1080" style="enable-background:new 0 0 1920 1080;" xml:space="preserve">
<style type="text/css">
	.st0{fill:#E1E4EB;stroke:#E1E4EB;stroke-width:3;stroke-miterlimit:10;}
	.st1{fill:#CBD0DB;stroke:#CBD0DB;stroke-width:3;stroke-linejoin:round;stroke-miterlimit:10;}
	.st2{fill:#5F6E8A;}
	.st3{fill:#CBD0DB;stroke:#CBD0DB;stroke-width:3;stroke-miterlimit:10;}
	.st4{fill:none;stroke:#AFB7C7;stroke-width:3;stroke-miterlimit:10;}
	.st5{fill:#62718E;}
	.st6{fill:none;stroke:#8592AB;stroke-width:3;stroke-miterlimit:10;}
	.st7{fill:none;stroke:#AFB7C7;stroke-width:3;stroke-linejoin:round;stroke-miterlimit:10;}
	.st8{fill:none;stroke:#AFB7C7;stroke-width:4;stroke-miterlimit:10;}
	.st9{fill:none;stroke:#62718E;stroke-width:4;stroke-miterlimit:10;}
	.st10{fill:none;stroke:#62718E;stroke-width:3;stroke-linecap:round;stroke-miterlimit:10;}
	.st11{fill:none;stroke:#62718E;stroke-width:3;stroke-miterlimit:10;}
	.st12{fill:none;stroke:#AFB7C7;stroke-width:3;stroke-linecap:round;stroke-miterlimit:10;}
	.st13{fill:none;stroke:#AFB7C7;stroke-linecap:round;stroke-miterlimit:10;}
	.st14{fill:none;stroke:#AFB7C7;stroke-width:3;stroke-linecap:round;stroke-linejoin:round;stroke-miterlimit:10;}
</style>
<g id="Camada_1">
	<rect x="-0.5" y="-0.5" class="st0" width="1920" height="1080"/>
</g>
<g id="área_valves">
	
		<rect x="1547.3" y="884" transform="matrix(3.474497e-03 1 -1 3.474497e-03 2490.3308 -668.1352)" class="st1" width="66.1" height="62.9"/>
	<g>
		<g>
			<path class="st2" d="M1565.6,894l2.2-3.8h1.6l-3.1,5.1l-2.4,4.1h-1.6L1565.6,894z M1565.6,895.5l-0.2-0.3l-3-5h1.6l2.1,3.6
				l0.2,0.4l3.2,5.2h-1.6L1565.6,895.5z"/>
			<path class="st2" d="M1569.8,890.2h1.6l2.1,6.7l2.1-6.7h1.6l-3,9.2h-1.3L1569.8,890.2z"/>
			<path class="st2" d="M1582.6,895.4v1.4h-4.4v-1.4H1582.6z"/>
			<path class="st2" d="M1585.1,898.9c-0.5-0.5-0.7-1.1-0.7-1.9v-4.2c0-0.8,0.2-1.5,0.7-1.9c0.5-0.5,1.1-0.7,2-0.7
				c0.9,0,1.5,0.2,2,0.7s0.7,1.1,0.7,1.9v4.2c0,0.8-0.2,1.5-0.7,1.9c-0.5,0.5-1.1,0.7-2,0.7C1586.2,899.6,1585.6,899.3,1585.1,898.9
				z M1588,897.7c0.2-0.2,0.3-0.6,0.3-1V893c0-0.4-0.1-0.8-0.3-1s-0.5-0.4-0.9-0.4s-0.7,0.1-0.9,0.4s-0.3,0.6-0.3,1v3.8
				c0,0.4,0.1,0.8,0.3,1s0.5,0.4,0.9,0.4S1587.8,898,1588,897.7z"/>
			<path class="st2" d="M1592.9,899.3c-0.4-0.2-0.7-0.5-0.9-0.9c-0.2-0.4-0.4-0.8-0.4-1.4v0h1.5v0c0,0.3,0.2,0.6,0.4,0.8
				c0.2,0.2,0.5,0.3,0.8,0.3c0.4,0,0.6-0.1,0.8-0.4c0.2-0.2,0.3-0.6,0.3-1V896c0-0.4-0.1-0.8-0.3-1c-0.2-0.2-0.5-0.4-0.8-0.4
				c-0.2,0-0.5,0.1-0.6,0.2c-0.2,0.1-0.3,0.3-0.5,0.5h-1.4v-5.1h4.8v1.5h-3.3v1.9c0.1-0.1,0.3-0.2,0.5-0.3c0.2-0.1,0.4-0.1,0.6-0.1
				c0.5,0,0.9,0.1,1.3,0.3c0.4,0.2,0.6,0.5,0.8,1c0.2,0.4,0.3,0.9,0.3,1.5v0.8c0,0.6-0.1,1.1-0.3,1.5c-0.2,0.4-0.5,0.7-0.9,1
				c-0.4,0.2-0.9,0.3-1.4,0.3C1593.7,899.6,1593.3,899.5,1592.9,899.3z"/>
		</g>
	</g>
	
		<rect x="520.8" y="860.7" transform="matrix(3.474498e-03 1 -1 3.474498e-03 1443.7183 335.6499)" class="st3" width="65.4" height="62.9"/>
	<g>
		<g>
			<path class="st2" d="M539.7,913.1l2.2-3.8h1.6l-3.1,5.1l-2.4,4.1h-1.6L539.7,913.1z M539.7,914.7l-0.2-0.3l-3-5h1.6l2.1,3.6
				l0.2,0.4l3.2,5.2H542L539.7,914.7z"/>
			<path class="st2" d="M543.9,909.4h1.6l2.1,6.7l2.1-6.7h1.6l-3,9.2h-1.3L543.9,909.4z"/>
			<path class="st2" d="M556.7,914.6v1.4h-4.4v-1.4H556.7z"/>
			<path class="st2" d="M559.2,918c-0.5-0.5-0.7-1.1-0.7-1.9v-4.2c0-0.8,0.2-1.5,0.7-1.9s1.1-0.7,2-0.7c0.9,0,1.5,0.2,2,0.7
				c0.5,0.5,0.7,1.1,0.7,1.9v4.2c0,0.8-0.2,1.5-0.7,1.9s-1.1,0.7-2,0.7C560.3,918.7,559.6,918.5,559.2,918z M562.1,916.9
				c0.2-0.2,0.3-0.6,0.3-1v-3.8c0-0.4-0.1-0.8-0.3-1s-0.5-0.4-0.9-0.4s-0.7,0.1-0.9,0.4s-0.3,0.6-0.3,1v3.8c0,0.4,0.1,0.8,0.3,1
				s0.5,0.4,0.9,0.4S561.9,917.1,562.1,916.9z"/>
			<path class="st2" d="M566.7,918.4c-0.4-0.2-0.7-0.5-1-0.9c-0.2-0.4-0.4-0.8-0.4-1.3h1.6c0,0.2,0.1,0.4,0.2,0.6s0.2,0.3,0.4,0.3
				s0.4,0.1,0.6,0.1c0.4,0,0.7-0.1,0.9-0.3s0.3-0.5,0.3-0.9v-0.2c0-0.4-0.1-0.7-0.3-0.9c-0.2-0.2-0.4-0.3-0.8-0.3h-0.7v-1.4h0.7
				c0.3,0,0.5-0.1,0.7-0.3c0.2-0.2,0.2-0.5,0.2-0.8v-0.2c0-0.3-0.1-0.6-0.3-0.8c-0.2-0.2-0.4-0.3-0.7-0.3c-0.2,0-0.4,0-0.5,0.1
				c-0.1,0.1-0.3,0.2-0.4,0.4s-0.2,0.4-0.2,0.6h-1.5c0.1-0.5,0.2-1,0.5-1.4c0.2-0.4,0.6-0.7,0.9-0.9c0.4-0.2,0.8-0.3,1.3-0.3
				c0.8,0,1.4,0.2,1.9,0.6c0.4,0.4,0.7,1,0.7,1.8v0.2c0,0.4-0.1,0.8-0.3,1.2s-0.6,0.6-1,0.7c0.5,0.1,0.8,0.3,1.1,0.7
				c0.3,0.4,0.4,0.9,0.4,1.4v0.2c0,0.5-0.1,1-0.3,1.4c-0.2,0.4-0.5,0.7-0.9,0.9s-0.9,0.3-1.4,0.3
				C567.6,918.7,567.1,918.6,566.7,918.4z"/>
		</g>
	</g>
	
		<rect x="520.6" y="679.6" transform="matrix(3.474498e-03 1 -1 3.474498e-03 1262.1937 155.4645)" class="st3" width="65" height="62.9"/>
	
		<rect x="521.3" y="768.5" transform="matrix(3.474498e-03 1 -1 3.474498e-03 1351.9156 243.2875)" class="st3" width="65.1" height="62.9"/>
	<g>
		<g>
			<path class="st2" d="M539.1,779l2.2-3.8h1.6l-3.1,5.1l-2.4,4.1h-1.6L539.1,779z M539.1,780.6l-0.2-0.3l-3-5h1.6l2.1,3.6l0.2,0.4
				l3.2,5.2h-1.6L539.1,780.6z"/>
			<path class="st2" d="M543.3,775.3h1.6l2.1,6.7l2.1-6.7h1.6l-3,9.2h-1.3L543.3,775.3z"/>
			<path class="st2" d="M556.1,780.5v1.4h-4.4v-1.4H556.1z"/>
			<path class="st2" d="M558.6,783.9c-0.5-0.5-0.7-1.1-0.7-1.9v-4.2c0-0.8,0.2-1.5,0.7-1.9s1.1-0.7,2-0.7c0.9,0,1.5,0.2,2,0.7
				c0.5,0.5,0.7,1.1,0.7,1.9v4.2c0,0.8-0.2,1.5-0.7,1.9s-1.1,0.7-2,0.7C559.7,784.6,559,784.4,558.6,783.9z M561.5,782.8
				c0.2-0.2,0.3-0.6,0.3-1V778c0-0.4-0.1-0.8-0.3-1s-0.5-0.4-0.9-0.4s-0.7,0.1-0.9,0.4s-0.3,0.6-0.3,1v3.8c0,0.4,0.1,0.8,0.3,1
				s0.5,0.4,0.9,0.4S561.3,783,561.5,782.8z"/>
			<path class="st2" d="M564.9,783.2l3.2-4.2c0.2-0.2,0.3-0.4,0.4-0.7c0.1-0.2,0.1-0.4,0.1-0.6v0c0-0.3-0.1-0.5-0.3-0.7
				c-0.2-0.2-0.5-0.3-0.8-0.3c-0.3,0-0.6,0.1-0.8,0.3c-0.2,0.2-0.3,0.5-0.4,0.9v0h-1.6v0c0.1-0.6,0.2-1,0.4-1.4s0.6-0.7,0.9-0.9
				s0.8-0.3,1.3-0.3c0.6,0,1,0.1,1.4,0.3s0.7,0.5,0.9,0.8c0.2,0.4,0.3,0.8,0.3,1.3v0c0,0.4-0.1,0.8-0.2,1.1
				c-0.1,0.4-0.3,0.7-0.6,1.1l-2.5,3.2h3.3v1.5h-5.3V783.2z"/>
		</g>
	</g>
	
		<rect x="522.6" y="946.5" transform="matrix(3.474499e-03 1 -1 3.474499e-03 1531.1212 419.5527)" class="st3" width="65" height="62.9"/>
	<g>
		<g>
			<path class="st2" d="M539.3,731.8l2.2-3.8h1.6l-3.1,5.1l-2.4,4.1h-1.6L539.3,731.8z M539.4,733.3l-0.2-0.3l-3-5h1.6l2.1,3.6
				l0.2,0.4l3.2,5.2h-1.6L539.4,733.3z"/>
			<path class="st2" d="M543.5,728h1.6l2.1,6.7l2.1-6.7h1.6l-3,9.2h-1.3L543.5,728z"/>
			<path class="st2" d="M556.4,733.2v1.4H552v-1.4H556.4z"/>
			<path class="st2" d="M558.8,736.6c-0.5-0.5-0.7-1.1-0.7-1.9v-4.2c0-0.8,0.2-1.5,0.7-1.9s1.1-0.7,2-0.7c0.9,0,1.5,0.2,2,0.7
				c0.5,0.5,0.7,1.1,0.7,1.9v4.2c0,0.8-0.2,1.5-0.7,1.9s-1.1,0.7-2,0.7C559.9,737.3,559.3,737.1,558.8,736.6z M561.7,735.5
				c0.2-0.2,0.3-0.6,0.3-1v-3.8c0-0.4-0.1-0.8-0.3-1s-0.5-0.4-0.9-0.4s-0.7,0.1-0.9,0.4s-0.3,0.6-0.3,1v3.8c0,0.4,0.1,0.8,0.3,1
				s0.5,0.4,0.9,0.4S561.5,735.8,561.7,735.5z"/>
			<path class="st2" d="M567.7,737.2h-1.5v-7.5l-1.2,0.6v-1.6l1.3-0.7h1.4V737.2z"/>
		</g>
	</g>
	<g>
		<g>
			<path class="st2" d="M540.3,957.1l2.2-3.8h1.6l-3.1,5.1l-2.4,4.1H537L540.3,957.1z M540.3,958.7l-0.2-0.3l-3-5h1.6l2.1,3.6
				l0.2,0.4l3.2,5.2h-1.6L540.3,958.7z"/>
			<path class="st2" d="M544.4,953.4h1.6l2.1,6.7l2.1-6.7h1.6l-3,9.2h-1.3L544.4,953.4z"/>
			<path class="st2" d="M557.3,958.6v1.4h-4.4v-1.4H557.3z"/>
			<path class="st2" d="M559.8,962c-0.5-0.5-0.7-1.1-0.7-1.9v-4.2c0-0.8,0.2-1.5,0.7-1.9s1.1-0.7,2-0.7c0.9,0,1.5,0.2,2,0.7
				c0.5,0.5,0.7,1.1,0.7,1.9v4.2c0,0.8-0.2,1.5-0.7,1.9s-1.1,0.7-2,0.7C560.9,962.7,560.2,962.5,559.8,962z M562.7,960.9
				c0.2-0.2,0.3-0.6,0.3-1v-3.8c0-0.4-0.1-0.8-0.3-1s-0.5-0.4-0.9-0.4s-0.7,0.1-0.9,0.4s-0.3,0.6-0.3,1v3.8c0,0.4,0.1,0.8,0.3,1
				s0.5,0.4,0.9,0.4S562.5,961.1,562.7,960.9z"/>
			<path class="st2" d="M566.1,959.8l3-6.4h1.7l-2.9,6.4h4.3v1.4h-6.1V959.8z M570,957.2h1.5v5.4H570V957.2z"/>
		</g>
	</g>
</g>
<g id="area_cprss">
	
		<rect x="103.3" y="633.8" transform="matrix(3.474467e-03 1 -1 3.474467e-03 1128.3209 559.6852)" class="st3" width="360" height="424.3"/>
</g>
<g id="Compressores">
	<rect x="243" y="684.5" class="st4" width="188.7" height="144"/>
	<rect x="243.3" y="864" class="st4" width="188.7" height="144"/>
</g>
<g id="Rep_CPRSS">
	<path class="st4" d="M827.5,909.5c18.7,45.1,18.3,58.4,18.3,58.4s-0.4,13.4-17.6,13.1"/>
	<path class="st4" d="M827.5,909.2c-18.1,45.4-17.4,58.8-17.4,58.8s0.6,13.4,18.1,13"/>
	<path class="st4" d="M828,908.8c-18.2-45.3-17.7-58.7-17.7-58.7s0.5-13.4,17.7-13"/>
	<path class="st4" d="M792,909h36c18.5-45.4,18-58.9,18-58.9s-0.5-13.5-18-13.1"/>
	<rect x="683.5" y="873.5" class="st4" width="108" height="72"/>
</g>
<g id="Area_flap">
	<rect x="612.5" y="72.5" class="st3" width="216" height="361"/>
	<g>
		<g>
			<path class="st5" d="M619.2,91h4.3l5.6,18l5.6-18h4.3l-8.2,24.8h-3.5L619.2,91z"/>
			<path class="st5" d="M642.3,91h4.1v24.8h-4.1V91z M644,91h14.6v3.9H644V91z M644,101.6h12.7v3.9H644V101.6z M644,111.9h14.6v3.9
				H644V111.9z"/>
			<path class="st5" d="M663.2,91h4.4l10.7,19.1l-0.4,0.4V91h4v24.8h-4.5L666.8,97l0.4-0.4v19.3h-4V91z"/>
			<path class="st5" d="M687.7,91h4.1v24.8h-4.1V91z M689.4,91H704v3.9h-14.6V91z M689.4,101.6h12.7v3.9h-12.7V101.6z M689.4,111.9
				H704v3.9h-14.6V111.9z"/>
			<path class="st5" d="M723.1,94.6l-10.5,17.3h10.9v3.9h-15.8v-3.6l10.6-17.3h-10.3V91h15.1V94.6z"/>
			<path class="st5" d="M731.7,115.8h-4.2V91h4.2V115.8z"/>
			<path class="st5" d="M744.3,91h3l9.3,24.8h-4.4l-6.4-18.5l-6.4,18.5h-4.4L744.3,91z M739.3,107.2h13.1v3.9h-13.1V107.2z"/>
			<path class="st5" d="M760,91h4.4l10.7,19.1l-0.4,0.4V91h4v24.8h-4.5L763.5,97l0.4-0.4v19.3h-4V91z"/>
			<path class="st5" d="M791.4,91h3l9.3,24.8h-4.4l-6.4-18.5l-6.4,18.5h-4.4L791.4,91z M786.5,107.2h13.1v3.9h-13.1V107.2z"/>
			<path class="st5" d="M811.4,115.7c-1.1-0.2-2.1-0.6-3.1-1c-1-0.5-1.8-1-2.6-1.7l2.2-3.3c1,0.8,2,1.4,3.2,1.8
				c1.2,0.4,2.5,0.6,3.8,0.6c1.7,0,3-0.3,3.9-0.9c0.9-0.6,1.4-1.4,1.4-2.5v0c0-0.8-0.2-1.4-0.6-1.8c-0.4-0.4-0.9-0.8-1.6-1
				c-0.7-0.2-1.5-0.4-2.5-0.6c0,0-0.1,0-0.1,0s-0.1,0-0.1,0l-0.3-0.1c-1.7-0.3-3-0.6-4.1-1c-1.1-0.4-2-1-2.7-2
				c-0.8-1-1.1-2.3-1.1-4.1v0c0-1.6,0.4-2.9,1.1-4c0.7-1.1,1.7-2,3.1-2.5c1.3-0.6,3-0.9,4.9-0.9c0.9,0,1.8,0.1,2.7,0.3
				s1.8,0.5,2.6,0.9c0.9,0.4,1.7,0.9,2.5,1.4l-2,3.4c-1-0.7-1.9-1.2-2.9-1.6c-1-0.4-2-0.5-2.9-0.5c-1.6,0-2.8,0.3-3.6,0.9
				s-1.3,1.4-1.3,2.4v0c0,0.8,0.2,1.4,0.7,1.9c0.4,0.5,1,0.8,1.7,1c0.7,0.2,1.6,0.4,2.8,0.7c0,0,0.1,0,0.1,0s0.1,0,0.1,0
				c0.1,0,0.1,0,0.2,0c0.1,0,0.1,0,0.2,0c1.5,0.3,2.8,0.7,3.9,1.1c1,0.4,1.9,1.1,2.6,2.1c0.7,1,1,2.3,1,3.9v0c0,1.5-0.4,2.9-1.1,4
				c-0.7,1.1-1.8,1.9-3.2,2.5c-1.4,0.6-3.1,0.9-5,0.9C813.6,116.1,812.5,116,811.4,115.7z"/>
		</g>
	</g>
</g>
<g id="Ventiladores">
	<rect x="71.5" y="72.5" class="st3" width="342" height="549"/>
</g>
<g id="tubo">
	
		<rect x="1029.1" y="142.1" transform="matrix(3.474513e-03 1 -1 3.474513e-03 1335.7196 -877.4595)" class="st3" width="158" height="178.7"/>
	<line class="st6" x1="1050.7" y1="262.1" x2="1050.7" y2="299.8"/>
	<circle class="st6" cx="1050.7" cy="256.1" r="6.3"/>
	<g>
		<g>
			<path class="st2" d="M1026.1,164h3.1v1.3h-3.1V164z M1027.2,170.2c-0.3-0.3-0.4-0.7-0.4-1.3v-6.8h1.5v6.6c0,0.2,0,0.3,0.1,0.4
				s0.2,0.1,0.3,0.1h0.5v1.5h-0.8C1027.8,170.6,1027.4,170.5,1027.2,170.2z"/>
			<path class="st2" d="M1030.9,164h1.6v6.6h-1.6V164z M1034.2,165.4c-0.1-0.1-0.3-0.1-0.5-0.1c-0.4,0-0.7,0.1-0.9,0.3
				c-0.2,0.2-0.3,0.5-0.3,0.9l-0.1-1.5c0.2-0.4,0.4-0.7,0.7-0.9s0.6-0.3,1-0.3c0.3,0,0.5,0,0.8,0.1c0.2,0.1,0.4,0.2,0.6,0.4
				l-0.9,1.3C1034.4,165.6,1034.3,165.5,1034.2,165.4z"/>
			<path class="st2" d="M1037.5,170.3c-0.4-0.2-0.7-0.6-1-1s-0.3-0.9-0.3-1.6v-1.1c0-0.6,0.1-1.1,0.3-1.5c0.2-0.4,0.5-0.7,1-1
				c0.4-0.2,0.9-0.3,1.5-0.3s1.1,0.1,1.5,0.3c0.4,0.2,0.7,0.5,1,1c0.2,0.4,0.3,0.9,0.3,1.5v1.1c0,0.6-0.1,1.1-0.3,1.5
				c-0.2,0.4-0.5,0.8-1,1c-0.4,0.2-0.9,0.3-1.5,0.3S1037.9,170.6,1037.5,170.3z M1039.9,168.9c0.2-0.2,0.3-0.6,0.3-1v-1.1
				c0-0.4-0.1-0.8-0.3-1c-0.2-0.2-0.5-0.4-0.9-0.4c-0.4,0-0.7,0.1-0.9,0.4c-0.2,0.2-0.3,0.6-0.3,1v1.1c0,0.4,0.1,0.8,0.3,1
				c0.2,0.2,0.5,0.4,0.9,0.4C1039.4,169.2,1039.7,169.1,1039.9,168.9z"/>
			<path class="st2" d="M1044.6,170.3c-0.4-0.2-0.8-0.6-1-1s-0.3-1-0.3-1.6v-0.9c0-0.6,0.1-1.1,0.3-1.6c0.2-0.4,0.6-0.8,1-1
				c0.4-0.2,1-0.3,1.6-0.3c0.4,0,0.7,0,1,0.1c0.3,0.1,0.6,0.2,0.8,0.4c0.2,0.2,0.5,0.3,0.6,0.6l-1,1c-0.2-0.2-0.4-0.3-0.6-0.4
				c-0.2-0.1-0.5-0.1-0.7-0.1c-0.5,0-0.8,0.1-1.1,0.4c-0.3,0.3-0.4,0.6-0.4,1.1v0.9c0,0.5,0.1,0.9,0.4,1.1c0.3,0.3,0.6,0.4,1.1,0.4
				c0.3,0,0.5-0.1,0.7-0.2c0.2-0.1,0.4-0.3,0.6-0.5l1,1c-0.2,0.2-0.4,0.4-0.6,0.6c-0.2,0.2-0.5,0.3-0.8,0.4c-0.3,0.1-0.6,0.1-1,0.1
				C1045.6,170.7,1045.1,170.6,1044.6,170.3z"/>
			<path class="st2" d="M1050.2,170.2c-0.4-0.3-0.6-0.8-0.6-1.5c0-0.7,0.2-1.1,0.6-1.5c0.4-0.3,1-0.5,1.7-0.5h1.8l0.1,1.2h-1.8
				c-0.3,0-0.5,0.1-0.7,0.2c-0.1,0.1-0.2,0.3-0.2,0.6c0,0.3,0.1,0.5,0.3,0.6c0.2,0.1,0.5,0.2,0.9,0.2c0.5,0,0.8-0.1,1.1-0.2
				c0.2-0.1,0.4-0.3,0.4-0.5l0.1,0.9c-0.1,0.2-0.2,0.4-0.4,0.5c-0.2,0.1-0.4,0.2-0.7,0.3c-0.3,0.1-0.5,0.1-0.8,0.1
				C1051.2,170.7,1050.6,170.5,1050.2,170.2z M1053.6,166.4c0-0.4-0.1-0.7-0.3-0.9s-0.5-0.3-0.9-0.3c-0.3,0-0.5,0-0.7,0.1
				c-0.2,0.1-0.5,0.2-0.7,0.3l-1-0.9c0.3-0.3,0.6-0.5,1-0.7s0.9-0.2,1.4-0.2c0.6,0,1,0.1,1.4,0.3c0.4,0.2,0.7,0.5,0.9,0.8
				c0.2,0.4,0.3,0.8,0.3,1.3v4.2h-1.4V166.4z"/>
			<path class="st2" d="M1056.9,164h1.6v6.6h-1.6V164z M1060.2,165.4c-0.1-0.1-0.3-0.1-0.5-0.1c-0.4,0-0.7,0.1-0.9,0.3
				c-0.2,0.2-0.3,0.5-0.3,0.9l-0.1-1.5c0.2-0.4,0.4-0.7,0.7-0.9s0.6-0.3,1-0.3c0.3,0,0.5,0,0.8,0.1c0.2,0.1,0.4,0.2,0.6,0.4
				l-0.9,1.3C1060.5,165.6,1060.3,165.5,1060.2,165.4z"/>
			<path class="st2" d="M1065.9,164h1.5v6.6h-1.5V164z M1069.8,166.6c0-0.4-0.1-0.7-0.3-0.9c-0.2-0.2-0.5-0.3-0.9-0.3
				c-0.4,0-0.7,0.1-0.9,0.3s-0.3,0.5-0.3,0.9l-0.1-1.4c0.2-0.4,0.5-0.7,0.8-0.9c0.3-0.2,0.7-0.3,1.1-0.3c0.7,0,1.2,0.2,1.6,0.7
				c0.4,0.5,0.6,1.1,0.6,2v4h-1.5V166.6z"/>
			<path class="st2" d="M1074.3,170.3c-0.4-0.2-0.7-0.6-1-1s-0.3-0.9-0.3-1.6v-1.1c0-0.6,0.1-1.1,0.3-1.5c0.2-0.4,0.5-0.7,1-1
				c0.4-0.2,0.9-0.3,1.5-0.3s1.1,0.1,1.5,0.3c0.4,0.2,0.7,0.5,1,1c0.2,0.4,0.3,0.9,0.3,1.5v1.1c0,0.6-0.1,1.1-0.3,1.5
				c-0.2,0.4-0.5,0.8-1,1c-0.4,0.2-0.9,0.3-1.5,0.3S1074.7,170.6,1074.3,170.3z M1076.7,168.9c0.2-0.2,0.3-0.6,0.3-1v-1.1
				c0-0.4-0.1-0.8-0.3-1c-0.2-0.2-0.5-0.4-0.9-0.4c-0.4,0-0.7,0.1-0.9,0.4c-0.2,0.2-0.3,0.6-0.3,1v1.1c0,0.4,0.1,0.8,0.3,1
				c0.2,0.2,0.5,0.4,0.9,0.4C1076.2,169.2,1076.5,169.1,1076.7,168.9z"/>
			<path class="st2" d="M1080.3,164h1.5v6.6h-1.5V164z M1084.2,166.7c0-0.4-0.1-0.8-0.3-1c-0.2-0.2-0.5-0.3-0.9-0.3
				c-0.4,0-0.7,0.1-0.9,0.3s-0.3,0.5-0.3,0.9l-0.1-1.4c0.2-0.4,0.5-0.7,0.8-0.9c0.3-0.2,0.7-0.3,1.1-0.3c0.5,0,0.9,0.1,1.2,0.3
				s0.6,0.5,0.8,0.9c0.2,0.4,0.3,0.9,0.3,1.5v3.9h-1.5V166.7z M1088.1,166.7c0-0.4-0.1-0.8-0.3-1c-0.2-0.2-0.5-0.3-0.9-0.3
				c-0.4,0-0.7,0.1-0.9,0.3c-0.2,0.2-0.3,0.5-0.3,0.9l-0.3-1.4c0.2-0.4,0.5-0.8,0.8-1c0.3-0.2,0.7-0.3,1.1-0.3
				c0.5,0,0.9,0.1,1.2,0.3c0.3,0.2,0.6,0.5,0.8,0.9c0.2,0.4,0.3,0.9,0.3,1.5v3.9h-1.5V166.7z"/>
			<path class="st2" d="M1092.6,170.3c-0.4-0.2-0.8-0.6-1-1c-0.2-0.4-0.3-1-0.3-1.6V167c0-0.7,0.1-1.2,0.3-1.7
				c0.2-0.5,0.5-0.8,1-1.1c0.4-0.2,0.9-0.4,1.5-0.4c0.6,0,1,0.1,1.4,0.4c0.4,0.3,0.7,0.7,0.9,1.2c0.2,0.5,0.3,1.2,0.3,1.9v0.4h-4.5
				v-1.1h3.1l0-0.1c0-0.5-0.2-0.8-0.4-1.1s-0.5-0.4-0.9-0.4c-0.5,0-0.8,0.1-1.1,0.4c-0.2,0.3-0.4,0.7-0.4,1.2v0.8
				c0,0.5,0.1,0.9,0.4,1.2c0.3,0.3,0.7,0.4,1.1,0.4c0.2,0,0.5,0,0.7-0.1c0.2-0.1,0.5-0.2,0.7-0.4l1,0.9c-0.3,0.3-0.7,0.6-1.1,0.7
				c-0.4,0.2-0.8,0.3-1.3,0.3C1093.5,170.7,1093,170.6,1092.6,170.3z"/>
		</g>
	</g>
	
		<rect x="469.7" y="191" transform="matrix(3.474518e-03 1 -1 3.474518e-03 780.5556 -249.2724)" class="st3" width="91.2" height="151.9"/>
	<line class="st6" x1="453.2" y1="264.2" x2="453.2" y2="302"/>
	<circle class="st6" cx="453.2" cy="258.3" r="6.3"/>
	<g>
		<g>
			<path class="st2" d="M448.3,229.5h1.5v9.2h-1.5V229.5z M449,233.7h3c0.2,0,0.5-0.1,0.6-0.2c0.2-0.1,0.3-0.3,0.4-0.5
				c0.1-0.2,0.2-0.4,0.2-0.7c0-0.3-0.1-0.5-0.2-0.7s-0.2-0.4-0.4-0.5s-0.4-0.2-0.6-0.2h-3v-1.5h2.9c0.6,0,1.1,0.1,1.5,0.4
				c0.4,0.2,0.8,0.6,1,1s0.4,0.9,0.4,1.5s-0.1,1.1-0.4,1.5c-0.2,0.4-0.6,0.8-1,1c-0.4,0.2-0.9,0.3-1.5,0.3H449V233.7z"/>
			<path class="st2" d="M457.9,238.7h-1.5v-9.2h1.5V238.7z"/>
			<path class="st2" d="M458.7,229.5h6.6v1.5h-6.6V229.5z M461.2,230.2h1.5v8.5h-1.5V230.2z"/>
			<path class="st2" d="M470.5,234.7v1.4h-4.4v-1.4H470.5z"/>
			<path class="st2" d="M472.9,238.1c-0.5-0.5-0.7-1.1-0.7-1.9V232c0-0.8,0.2-1.5,0.7-1.9s1.1-0.7,2-0.7c0.9,0,1.5,0.2,2,0.7
				c0.5,0.5,0.7,1.1,0.7,1.9v4.2c0,0.8-0.2,1.5-0.7,1.9s-1.1,0.7-2,0.7C474.1,238.8,473.4,238.6,472.9,238.1z M475.8,237
				c0.2-0.2,0.3-0.6,0.3-1v-3.8c0-0.4-0.1-0.8-0.3-1s-0.5-0.4-0.9-0.4s-0.7,0.1-0.9,0.4s-0.3,0.6-0.3,1v3.8c0,0.4,0.1,0.8,0.3,1
				s0.5,0.4,0.9,0.4S475.7,237.2,475.8,237z"/>
			<path class="st2" d="M480.5,238.5c-0.4-0.2-0.7-0.5-1-0.9c-0.2-0.4-0.4-0.8-0.4-1.3h1.6c0,0.2,0.1,0.4,0.2,0.6s0.2,0.3,0.4,0.3
				s0.4,0.1,0.6,0.1c0.4,0,0.7-0.1,0.9-0.3s0.3-0.5,0.3-0.9v-0.2c0-0.4-0.1-0.7-0.3-0.9c-0.2-0.2-0.4-0.3-0.8-0.3h-0.7v-1.4h0.7
				c0.3,0,0.5-0.1,0.7-0.3c0.2-0.2,0.2-0.5,0.2-0.8v-0.2c0-0.3-0.1-0.6-0.3-0.8c-0.2-0.2-0.4-0.3-0.7-0.3c-0.2,0-0.4,0-0.5,0.1
				c-0.1,0.1-0.3,0.2-0.4,0.4s-0.2,0.4-0.2,0.6h-1.5c0.1-0.5,0.2-1,0.5-1.4c0.2-0.4,0.6-0.7,0.9-0.9c0.4-0.2,0.8-0.3,1.3-0.3
				c0.8,0,1.4,0.2,1.9,0.6c0.4,0.4,0.7,1,0.7,1.8v0.2c0,0.4-0.1,0.8-0.3,1.2s-0.6,0.6-1,0.7c0.5,0.1,0.8,0.3,1.1,0.7
				c0.3,0.4,0.4,0.9,0.4,1.4v0.2c0,0.5-0.1,1-0.3,1.4c-0.2,0.4-0.5,0.7-0.9,0.9s-0.9,0.3-1.4,0.3
				C481.4,238.8,480.9,238.7,480.5,238.5z"/>
		</g>
	</g>
	<line class="st7" x1="1300.5" y1="938.4" x2="1300.5" y2="914.4"/>
	<line class="st7" x1="1327.8" y1="914.4" x2="1327.8" y2="938.4"/>
	<ellipse class="st7" cx="1313.9" cy="926.4" rx="13.1" ry="12"/>
	<g>
		<g>
			<path class="st2" d="M1308.1,922h1.6l2.1,6.7l2.1-6.7h1.6l-3,9.2h-1.3L1308.1,922z"/>
			<path class="st2" d="M1317.5,931c-0.4-0.2-0.7-0.5-1-0.9c-0.2-0.4-0.4-0.8-0.4-1.3h1.6c0,0.2,0.1,0.4,0.2,0.6
				c0.1,0.2,0.2,0.3,0.4,0.3c0.2,0.1,0.4,0.1,0.6,0.1c0.4,0,0.7-0.1,0.9-0.3c0.2-0.2,0.3-0.5,0.3-0.9v-0.2c0-0.4-0.1-0.7-0.3-0.9
				c-0.2-0.2-0.4-0.3-0.8-0.3h-0.7v-1.4h0.7c0.3,0,0.5-0.1,0.7-0.3c0.2-0.2,0.2-0.5,0.2-0.8v-0.2c0-0.3-0.1-0.6-0.3-0.8
				c-0.2-0.2-0.4-0.3-0.7-0.3c-0.2,0-0.4,0-0.5,0.1c-0.2,0.1-0.3,0.2-0.4,0.4c-0.1,0.2-0.2,0.4-0.2,0.6h-1.5c0.1-0.5,0.2-1,0.5-1.4
				c0.2-0.4,0.6-0.7,0.9-0.9c0.4-0.2,0.8-0.3,1.3-0.3c0.8,0,1.4,0.2,1.9,0.6s0.7,1,0.7,1.8v0.2c0,0.4-0.1,0.8-0.3,1.2
				c-0.2,0.3-0.6,0.6-1,0.7c0.5,0.1,0.8,0.3,1.1,0.7c0.3,0.4,0.4,0.9,0.4,1.4v0.2c0,0.5-0.1,1-0.3,1.4c-0.2,0.4-0.5,0.7-0.9,0.9
				c-0.4,0.2-0.9,0.3-1.4,0.3C1318.4,931.3,1317.9,931.2,1317.5,931z"/>
		</g>
	</g>
	<g>
		<g>
			<path class="st2" d="M1292.1,693.4h1.6l2.1,6.7l2.1-6.7h1.6l-3,9.2h-1.3L1292.1,693.4z"/>
			<path class="st2" d="M1300.3,701.2l3.2-4.2c0.2-0.2,0.3-0.4,0.4-0.7s0.1-0.4,0.1-0.6v0c0-0.3-0.1-0.5-0.3-0.7
				c-0.2-0.2-0.5-0.3-0.8-0.3c-0.3,0-0.6,0.1-0.8,0.3c-0.2,0.2-0.3,0.5-0.4,0.9v0h-1.6v0c0.1-0.6,0.2-1,0.4-1.4
				c0.2-0.4,0.6-0.7,0.9-0.9c0.4-0.2,0.8-0.3,1.3-0.3c0.6,0,1,0.1,1.4,0.3c0.4,0.2,0.7,0.5,0.9,0.8c0.2,0.4,0.3,0.8,0.3,1.3v0
				c0,0.4-0.1,0.8-0.2,1.1c-0.1,0.4-0.3,0.7-0.6,1.1l-2.5,3.2h3.3v1.5h-5.3V701.2z"/>
		</g>
	</g>
	<g>
		<g>
			<path class="st2" d="M1218.1,761.4h1.6l2.1,6.7l2.1-6.7h1.6l-3,9.2h-1.3L1218.1,761.4z"/>
			<path class="st2" d="M1228.8,770.6h-1.5v-7.5l-1.2,0.6v-1.6l1.3-0.7h1.4V770.6z"/>
		</g>
	</g>
	
		<rect x="695.2" y="690.3" transform="matrix(3.474527e-03 1 -1 3.474527e-03 1512.9019 31.1059)" class="st3" width="91.2" height="168.7"/>
	<g>
		<g>
			<path class="st2" d="M682.1,737.1h1.5v9.2h-1.5V737.1z M682.9,741.3h3c0.2,0,0.5-0.1,0.6-0.2c0.2-0.1,0.3-0.3,0.4-0.5
				c0.1-0.2,0.2-0.4,0.2-0.7c0-0.3-0.1-0.5-0.2-0.7s-0.2-0.4-0.4-0.5s-0.4-0.2-0.6-0.2h-3v-1.5h2.9c0.6,0,1.1,0.1,1.5,0.4
				c0.4,0.2,0.8,0.6,1,1s0.4,0.9,0.4,1.5s-0.1,1.1-0.4,1.5c-0.2,0.4-0.6,0.8-1,1c-0.4,0.2-0.9,0.3-1.5,0.3h-2.9V741.3z"/>
			<path class="st2" d="M691.7,746.3h-1.5v-9.2h1.5V746.3z"/>
			<path class="st2" d="M692.5,737.1h6.6v1.5h-6.6V737.1z M695.1,737.8h1.5v8.5h-1.5V737.8z"/>
			<path class="st2" d="M704.3,742.3v1.4h-4.4v-1.4H704.3z"/>
			<path class="st2" d="M706.8,745.7c-0.5-0.5-0.7-1.1-0.7-1.9v-4.2c0-0.8,0.2-1.5,0.7-1.9s1.1-0.7,2-0.7c0.9,0,1.5,0.2,2,0.7
				c0.5,0.5,0.7,1.1,0.7,1.9v4.2c0,0.8-0.2,1.5-0.7,1.9s-1.1,0.7-2,0.7C707.9,746.4,707.3,746.2,706.8,745.7z M709.7,744.6
				c0.2-0.2,0.3-0.6,0.3-1v-3.8c0-0.4-0.1-0.8-0.3-1s-0.5-0.4-0.9-0.4s-0.7,0.1-0.9,0.4s-0.3,0.6-0.3,1v3.8c0,0.4,0.1,0.8,0.3,1
				s0.5,0.4,0.9,0.4S709.5,744.8,709.7,744.6z"/>
			<path class="st2" d="M713.2,745l3.2-4.2c0.2-0.2,0.3-0.4,0.4-0.7c0.1-0.2,0.1-0.4,0.1-0.6v0c0-0.3-0.1-0.5-0.3-0.7
				c-0.2-0.2-0.5-0.3-0.8-0.3c-0.3,0-0.6,0.1-0.8,0.3c-0.2,0.2-0.3,0.5-0.4,0.9v0H713v0c0.1-0.6,0.2-1,0.4-1.4s0.6-0.7,0.9-0.9
				s0.8-0.3,1.3-0.3c0.6,0,1,0.1,1.4,0.3s0.7,0.5,0.9,0.8c0.2,0.4,0.3,0.8,0.3,1.3v0c0,0.4-0.1,0.8-0.2,1.1
				c-0.1,0.4-0.3,0.7-0.6,1.1l-2.5,3.2h3.3v1.5h-5.3V745z"/>
		</g>
	</g>
	
		<rect x="695.1" y="583" transform="matrix(3.474527e-03 1 -1 3.474527e-03 1405.4037 -75.8049)" class="st3" width="91.2" height="168.5"/>
	<line class="st8" x1="710" y1="156.6" x2="710" y2="143.5"/>
	<line class="st8" x1="710" y1="301.1" x2="710" y2="288"/>
	<g>
		<g>
			<path class="st5" d="M262.3,970.1h3.3V990h-3.3V970.1z M264.1,978.6h11.3v3.1h-11.3V978.6z M273.4,970.1h3.3V990h-3.3V970.1z"/>
			<path class="st5" d="M281.3,970.1h3.3V990h-3.3V970.1z M282.7,970.1h11.7v3.1h-11.7V970.1z M282.7,978.6h10.2v3.1h-10.2V978.6z
				 M282.7,986.9h11.7v3.1h-11.7V986.9z"/>
			<path class="st5" d="M298.1,970.1h3.3V990h-3.3V970.1z M299.4,978.7h6.8c0.5,0,0.9-0.1,1.2-0.3c0.4-0.2,0.6-0.5,0.8-1
				s0.3-0.9,0.3-1.4c0-0.5-0.1-1-0.3-1.4s-0.5-0.7-0.8-1c-0.4-0.2-0.8-0.3-1.2-0.3h-6.8v-3.1h6.9c1.1,0,2.1,0.2,3,0.7s1.5,1.2,2,2.1
				c0.5,0.9,0.7,1.9,0.7,3.1c0,1.2-0.2,2.2-0.7,3.1c-0.5,0.9-1.1,1.6-2,2.1c-0.9,0.5-1.8,0.7-2.9,0.7h-6.9V978.7z M304.2,981.2
				l3.4-0.6l5.2,9.4h-3.9L304.2,981.2z"/>
			<path class="st5" d="M329.7,970.1h3.8V990h-3.1v-15.2l0.1,0.9l-4.3,11.8h-2.6l-4.3-11.5l0.1-1.1V990h-3.1v-19.9h3.8l4.8,13.3
				L329.7,970.1z"/>
			<path class="st5" d="M338.1,970.1h3.3V990h-3.3V970.1z M339.5,970.1h11.7v3.1h-11.7V970.1z M339.5,978.6h10.2v3.1h-10.2V978.6z
				 M339.5,986.9h11.7v3.1h-11.7V986.9z M343.4,966.9l3.8-3.3l2.1,2.2l-4,3.1L343.4,966.9z"/>
			<path class="st5" d="M352.1,970.1h14.3v3.1h-14.3V970.1z M357.7,971.7h3.3V990h-3.3V971.7z"/>
			<path class="st5" d="M371.5,990h-3.3v-19.9h3.3V990z"/>
			<path class="st5" d="M379,989.3c-1.1-0.6-1.9-1.5-2.4-2.6c-0.6-1.1-0.9-2.4-0.9-4v-5.5c0-1.5,0.3-2.8,0.9-4
				c0.6-1.1,1.4-2,2.4-2.6c1.1-0.6,2.3-0.9,3.8-0.9c1.2,0,2.3,0.3,3.2,0.8s1.8,1.2,2.4,2.2s1.1,2.1,1.3,3.4h-3.4
				c-0.2-0.6-0.4-1.2-0.8-1.7s-0.8-0.8-1.3-1.1c-0.5-0.3-1-0.4-1.6-0.4c-0.8,0-1.4,0.2-2,0.5c-0.6,0.3-1,0.8-1.3,1.5
				s-0.5,1.4-0.5,2.2v5.5c0,0.9,0.2,1.6,0.5,2.2s0.7,1.1,1.3,1.4c0.6,0.3,1.2,0.5,2,0.5c0.6,0,1.1-0.1,1.6-0.4
				c0.5-0.2,0.9-0.6,1.3-1.1s0.6-1,0.8-1.7h3.4c-0.2,1.3-0.7,2.4-1.3,3.4s-1.4,1.7-2.4,2.2s-2,0.8-3.2,0.8
				C381.3,990.2,380,989.9,379,989.3z"/>
			<path class="st5" d="M396.4,989.3c-1.1-0.6-1.9-1.5-2.5-2.6c-0.6-1.1-0.9-2.4-0.9-3.8v-5.6c0-1.5,0.3-2.7,0.9-3.8
				c0.6-1.1,1.4-2,2.5-2.6c1.1-0.6,2.3-0.9,3.7-0.9c1.4,0,2.7,0.3,3.7,0.9c1.1,0.6,1.9,1.5,2.5,2.6c0.6,1.1,0.9,2.4,0.9,3.8v5.6
				c0,1.5-0.3,2.7-0.9,3.8c-0.6,1.1-1.4,2-2.5,2.6c-1.1,0.6-2.3,0.9-3.7,0.9C398.7,990.2,397.4,989.9,396.4,989.3z M402.1,986.5
				c0.6-0.3,1-0.8,1.3-1.4c0.3-0.6,0.5-1.3,0.5-2.1v-5.8c0-0.8-0.2-1.5-0.5-2.1c-0.3-0.6-0.8-1.1-1.3-1.4c-0.6-0.3-1.2-0.5-2-0.5
				c-0.7,0-1.4,0.2-2,0.5c-0.6,0.3-1,0.8-1.3,1.4c-0.3,0.6-0.5,1.3-0.5,2.1v5.8c0,0.8,0.2,1.5,0.5,2.1c0.3,0.6,0.7,1.1,1.3,1.4
				c0.6,0.3,1.2,0.5,2,0.5C400.8,987,401.5,986.8,402.1,986.5z"/>
		</g>
	</g>
	<g>
		<g>
			<path class="st5" d="M269.5,728.9c-1.3-0.3-2.6-0.7-3.7-1.2s-2.2-1.2-3.2-2l2.6-3.9c1.1,1,2.4,1.7,3.9,2.2s2.9,0.7,4.5,0.7
				c2,0,3.5-0.4,4.6-1.1s1.7-1.7,1.7-3v0c0-0.9-0.2-1.6-0.7-2.2s-1.1-0.9-1.9-1.2s-1.8-0.5-3.1-0.7c0,0-0.1,0-0.1,0s-0.1,0-0.1,0
				l-0.4-0.1c-2-0.3-3.6-0.7-4.9-1.2s-2.4-1.3-3.3-2.4s-1.4-2.8-1.4-4.9v0c0-1.9,0.4-3.5,1.3-4.8s2.1-2.4,3.7-3.1s3.6-1,5.8-1
				c1.1,0,2.1,0.1,3.2,0.4c1.1,0.2,2.1,0.6,3.2,1s2,1,3,1.7l-2.4,4c-1.1-0.8-2.3-1.4-3.5-1.9s-2.4-0.6-3.5-0.6c-1.9,0-3.3,0.3-4.4,1
				c-1,0.7-1.5,1.7-1.5,2.9v0c0,0.9,0.3,1.7,0.8,2.2s1.2,0.9,2,1.2s1.9,0.5,3.4,0.8c0.1,0,0.1,0,0.2,0c0,0,0.1,0,0.2,0
				c0.1,0,0.1,0,0.2,0s0.2,0,0.2,0c1.8,0.4,3.4,0.8,4.6,1.3s2.3,1.4,3.1,2.5s1.3,2.7,1.3,4.7v0c0,1.9-0.4,3.5-1.3,4.8
				s-2.1,2.3-3.8,3c-1.7,0.7-3.7,1-6,1C272.2,729.3,270.8,729.2,269.5,728.9z"/>
			<path class="st5" d="M294.7,728c-1.6-0.9-2.8-2.2-3.7-3.8s-1.3-3.6-1.3-5.9V710c0-2.3,0.4-4.3,1.3-5.9s2.1-3,3.7-3.9
				s3.5-1.4,5.6-1.4c1.8,0,3.4,0.4,4.9,1.1s2.7,1.9,3.6,3.3c1,1.4,1.6,3.1,2,5.1h-5c-0.2-1-0.6-1.8-1.2-2.5
				c-0.5-0.7-1.2-1.3-1.9-1.7s-1.5-0.6-2.4-0.6c-1.1,0-2.1,0.3-2.9,0.8c-0.8,0.5-1.5,1.2-1.9,2.2s-0.7,2.1-0.7,3.3v8.2
				c0,1.3,0.2,2.4,0.7,3.3s1.1,1.7,1.9,2.2s1.8,0.8,2.9,0.8c0.9,0,1.7-0.2,2.4-0.6s1.4-0.9,1.9-1.6s0.9-1.6,1.1-2.6h5
				c-0.4,2-1,3.7-2,5.1s-2.2,2.5-3.6,3.3s-3.1,1.1-4.9,1.1C298.2,729.3,296.3,728.9,294.7,728z"/>
			<path class="st5" d="M316.3,699.2h4.9V729h-4.9V699.2z M318.4,712h10.3c0.7,0,1.3-0.2,1.8-0.5c0.5-0.3,0.9-0.8,1.2-1.4
				s0.4-1.3,0.5-2.2c0-0.8-0.1-1.5-0.4-2.1s-0.7-1.1-1.2-1.4c-0.5-0.3-1.1-0.5-1.8-0.5h-10.3v-4.7h10.4c1.7,0,3.2,0.4,4.4,1.1
				s2.3,1.8,3,3.1s1.1,2.9,1.1,4.6c0,1.8-0.4,3.3-1.1,4.6s-1.7,2.4-3,3.1s-2.8,1.1-4.4,1.1h-10.4V712z M325.6,715.8l5.1-0.9
				l7.8,14.2h-5.9L325.6,715.8z"/>
			<path class="st5" d="M348.2,727.9c-1.6-0.9-2.9-2.2-3.8-3.9c-0.9-1.7-1.3-3.6-1.3-5.8v-8.4c0-2.2,0.4-4.1,1.3-5.8
				c0.9-1.7,2.1-2.9,3.8-3.9s3.5-1.4,5.6-1.4s4,0.5,5.6,1.4s2.9,2.2,3.8,3.9c0.9,1.7,1.3,3.6,1.3,5.8v8.4c0,2.2-0.4,4.1-1.3,5.8
				c-0.9,1.7-2.1,2.9-3.8,3.9c-1.6,0.9-3.5,1.4-5.6,1.4S349.8,728.9,348.2,727.9z M356.7,723.7c0.9-0.5,1.5-1.2,2-2.1s0.7-2,0.7-3.1
				v-8.7c0-1.2-0.2-2.2-0.7-3.1c-0.5-0.9-1.1-1.6-2-2.1s-1.8-0.7-3-0.7s-2.1,0.2-3,0.7s-1.5,1.2-2,2.1c-0.5,0.9-0.7,2-0.7,3.1v8.7
				c0,1.2,0.2,2.2,0.7,3.1s1.1,1.6,2,2.1s1.8,0.7,3,0.7S355.9,724.2,356.7,723.7z"/>
			<path class="st5" d="M370.8,699.2h4.9V729h-4.9V699.2z M373.1,724.3h17.3v4.7h-17.3V724.3z"/>
			<path class="st5" d="M394.9,699.2h4.9V729h-4.9V699.2z M397.2,724.3h17.3v4.7h-17.3V724.3z"/>
		</g>
	</g>
	<g>
		<g>
			<path class="st5" d="M99.4,96.2h5.2l6.7,21.6l6.7-21.6h5.2l-9.8,29.8h-4.2L99.4,96.2z"/>
			<path class="st5" d="M127.1,96.2h4.9V126h-4.9V96.2z M129.2,96.2h17.5v4.7h-17.5V96.2z M129.2,108.9h15.3v4.7h-15.3V108.9z
				 M129.2,121.3h17.5v4.7h-17.5V121.3z"/>
			<path class="st5" d="M152.2,96.2h5.3l12.8,22.9l-0.5,0.5V96.2h4.8V126h-5.4l-12.8-22.6l0.5-0.5V126h-4.8V96.2z"/>
			<path class="st5" d="M177.5,96.2H199v4.7h-21.5V96.2z M185.8,98.6h4.9V126h-4.9V98.6z"/>
			<path class="st5" d="M206.7,126h-5V96.2h5V126z"/>
			<path class="st5" d="M213.4,96.2h4.9V126h-4.9V96.2z M215.7,121.3H233v4.7h-17.3V121.3z"/>
			<path class="st5" d="M245.8,96.2h3.6l11.2,29.8h-5.3l-7.7-22.2l-7.7,22.2h-5.3L245.8,96.2z M239.9,115.6h15.7v4.7h-15.7V115.6z"
				/>
			<path class="st5" d="M264.7,96.2h4.9V126h-4.9V96.2z M267.5,121.3h7c2,0,3.6-0.5,4.7-1.5s1.7-2.4,1.7-4.3v-8.8
				c0-1.9-0.6-3.3-1.7-4.3s-2.7-1.5-4.7-1.5h-7v-4.7h6.8c2.4,0,4.5,0.4,6.2,1.3s3,2.1,3.9,3.7s1.4,3.5,1.4,5.8v8.4
				c0,2.2-0.4,4.1-1.3,5.7s-2.2,2.8-3.9,3.7s-3.8,1.3-6.3,1.3h-6.8V121.3z"/>
			<path class="st5" d="M296.7,124.9c-1.6-0.9-2.9-2.2-3.8-3.9s-1.3-3.6-1.3-5.8v-8.4c0-2.2,0.4-4.1,1.3-5.8s2.1-2.9,3.8-3.9
				s3.5-1.4,5.6-1.4s4,0.5,5.6,1.4s2.9,2.2,3.8,3.9s1.3,3.6,1.3,5.8v8.4c0,2.2-0.4,4.1-1.3,5.8s-2.1,2.9-3.8,3.9s-3.5,1.4-5.6,1.4
				S298.3,125.9,296.7,124.9z M305.3,120.7c0.9-0.5,1.5-1.2,2-2.1s0.7-2,0.7-3.1v-8.7c0-1.2-0.2-2.2-0.7-3.1s-1.1-1.6-2-2.1
				s-1.8-0.7-3-0.7s-2.1,0.2-3,0.7s-1.5,1.2-2,2.1s-0.7,2-0.7,3.1v8.7c0,1.2,0.2,2.2,0.7,3.1s1.1,1.6,2,2.1s1.8,0.7,3,0.7
				S304.4,121.2,305.3,120.7z"/>
			<path class="st5" d="M319.4,96.2h4.9V126h-4.9V96.2z M321.4,109h10.3c0.7,0,1.3-0.2,1.8-0.5s0.9-0.8,1.2-1.4s0.4-1.3,0.5-2.2
				c0-0.8-0.1-1.5-0.4-2.1s-0.7-1.1-1.2-1.4s-1.1-0.5-1.8-0.5h-10.3v-4.7h10.4c1.7,0,3.2,0.4,4.4,1.1s2.3,1.8,3,3.1s1.1,2.9,1.1,4.6
				c0,1.8-0.4,3.3-1.1,4.6s-1.7,2.4-3,3.1s-2.8,1.1-4.4,1.1h-10.4V109z M328.6,112.8l5.1-0.9l7.8,14.2h-5.9L328.6,112.8z"/>
			<path class="st5" d="M346.8,96.2h4.9V126h-4.9V96.2z M348.8,96.2h17.5v4.7h-17.5V96.2z M348.8,108.9h15.3v4.7h-15.3V108.9z
				 M348.8,121.3h17.5v4.7h-17.5V121.3z"/>
			<path class="st5" d="M376.9,125.9c-1.3-0.3-2.6-0.7-3.7-1.2s-2.2-1.2-3.2-2l2.6-3.9c1.1,1,2.4,1.7,3.9,2.2s2.9,0.7,4.5,0.7
				c2,0,3.5-0.4,4.6-1.1s1.7-1.7,1.7-3v0c0-0.9-0.2-1.6-0.7-2.2s-1.1-0.9-1.9-1.2s-1.8-0.5-3.1-0.7c0,0-0.1,0-0.1,0s-0.1,0-0.1,0
				l-0.4-0.1c-2-0.3-3.6-0.7-4.9-1.2s-2.4-1.3-3.3-2.4s-1.4-2.8-1.4-4.9v0c0-1.9,0.4-3.5,1.3-4.8s2.1-2.4,3.7-3.1s3.6-1,5.8-1
				c1.1,0,2.1,0.1,3.2,0.4s2.1,0.6,3.2,1s2,1,3,1.7l-2.4,4c-1.1-0.8-2.3-1.4-3.5-1.9s-2.4-0.6-3.5-0.6c-1.9,0-3.3,0.3-4.4,1
				s-1.5,1.7-1.5,2.9v0c0,0.9,0.3,1.7,0.8,2.2s1.2,0.9,2,1.2s1.9,0.5,3.4,0.8c0.1,0,0.1,0,0.2,0s0.1,0,0.2,0c0.1,0,0.1,0,0.2,0
				s0.2,0,0.2,0c1.8,0.4,3.4,0.8,4.6,1.3s2.3,1.4,3.1,2.5s1.3,2.7,1.3,4.7v0c0,1.9-0.4,3.5-1.3,4.8s-2.1,2.3-3.8,3s-3.7,1-6,1
				C379.6,126.3,378.2,126.2,376.9,125.9z"/>
		</g>
	</g>
	<line class="st6" x1="686.8" y1="664.4" x2="686.8" y2="702.2"/>
	<circle class="st6" cx="686.8" cy="658.5" r="6.3"/>
	<line class="st6" x1="687" y1="772.2" x2="687" y2="810"/>
	<circle class="st6" cx="687" cy="766.3" r="6.3"/>
	<path class="st4" d="M281.3,379.8c16.2,18.3,23.1,44.2,18.2,68.1c-4.6,22.6-19.9,42.6-40.2,53.5c-22.4,12-50.4,11.9-72.9,0.2
		c-20.5-10.6-35.6-30.6-40.5-53.2c-5.2-23.9,1.5-49.7,17.6-68.1c2.2-2.5,4.9-4.7,7.1-7.1c5.8-6.3,5.9-6.5,5.9-6.5
		c22-22,43.8-43.8,65.6-65.6"/>
	<path class="st4" d="M242.2,301.1"/>
	<path class="st4" d="M281.5,379.6c78.5-78.5,78.5-78.5,78.5-78.5h94.5h758.8V144H144v157.1h99"/>
	<g>
		<g>
			<path class="st2" d="M681.9,629.7h1.5v9.2h-1.5V629.7z M682.7,633.9h3c0.2,0,0.5-0.1,0.6-0.2c0.2-0.1,0.3-0.3,0.4-0.5
				c0.1-0.2,0.2-0.4,0.2-0.7c0-0.3-0.1-0.5-0.2-0.7s-0.2-0.4-0.4-0.5s-0.4-0.2-0.6-0.2h-3v-1.5h2.9c0.6,0,1.1,0.1,1.5,0.4
				c0.4,0.2,0.8,0.6,1,1s0.4,0.9,0.4,1.5s-0.1,1.1-0.4,1.5c-0.2,0.4-0.6,0.8-1,1c-0.4,0.2-0.9,0.3-1.5,0.3h-2.9V633.9z"/>
			<path class="st2" d="M691.5,638.9H690v-9.2h1.5V638.9z"/>
			<path class="st2" d="M692.3,629.7h6.6v1.5h-6.6V629.7z M694.9,630.5h1.5v8.5h-1.5V630.5z"/>
			<path class="st2" d="M704.1,634.9v1.4h-4.4v-1.4H704.1z"/>
			<path class="st2" d="M706.6,638.3c-0.5-0.5-0.7-1.1-0.7-1.9v-4.2c0-0.8,0.2-1.5,0.7-1.9s1.1-0.7,2-0.7c0.9,0,1.5,0.2,2,0.7
				c0.5,0.5,0.7,1.1,0.7,1.9v4.2c0,0.8-0.2,1.5-0.7,1.9s-1.1,0.7-2,0.7C707.7,639,707,638.8,706.6,638.3z M709.5,637.2
				c0.2-0.2,0.3-0.6,0.3-1v-3.8c0-0.4-0.1-0.8-0.3-1s-0.5-0.4-0.9-0.4s-0.7,0.1-0.9,0.4s-0.3,0.6-0.3,1v3.8c0,0.4,0.1,0.8,0.3,1
				s0.5,0.4,0.9,0.4S709.3,637.5,709.5,637.2z"/>
			<path class="st2" d="M715.4,638.9h-1.5v-7.5l-1.2,0.6v-1.6l1.3-0.7h1.4V638.9z"/>
		</g>
	</g>
</g>
<g id="termometro">
	
		<rect x="895" y="690.3" transform="matrix(3.474527e-03 1 -1 3.474527e-03 1712.4972 -168.0874)" class="st3" width="91.2" height="169.8"/>
	<g>
		<g>
			<path class="st2" d="M963.6,731.8h6.6v1.5h-6.6V731.8z M966.2,732.6h1.5v8.5h-1.5V732.6z"/>
			<path class="st2" d="M972.6,741.1h-1.5v-9.2h1.5V741.1z"/>
			<path class="st2" d="M973.5,731.8h6.6v1.5h-6.6V731.8z M976,732.6h1.5v8.5H976V732.6z"/>
			<path class="st2" d="M985.3,737v1.4h-4.4V737H985.3z"/>
			<path class="st2" d="M987.7,740.5c-0.5-0.5-0.7-1.1-0.7-1.9v-4.2c0-0.8,0.2-1.5,0.7-1.9c0.5-0.5,1.1-0.7,2-0.7
				c0.9,0,1.5,0.2,2,0.7c0.5,0.5,0.7,1.1,0.7,1.9v4.2c0,0.8-0.2,1.5-0.7,1.9c-0.5,0.5-1.1,0.7-2,0.7
				C988.8,741.2,988.2,740.9,987.7,740.5z M990.6,739.4c0.2-0.2,0.3-0.6,0.3-1v-3.8c0-0.4-0.1-0.8-0.3-1s-0.5-0.4-0.9-0.4
				s-0.7,0.1-0.9,0.4s-0.3,0.6-0.3,1v3.8c0,0.4,0.1,0.8,0.3,1s0.5,0.4,0.9,0.4S990.4,739.6,990.6,739.4z"/>
			<path class="st2" d="M994.1,739.7l3.2-4.2c0.2-0.2,0.3-0.4,0.4-0.7c0.1-0.2,0.1-0.4,0.1-0.6v0c0-0.3-0.1-0.5-0.3-0.7
				s-0.5-0.3-0.8-0.3c-0.3,0-0.6,0.1-0.8,0.3s-0.3,0.5-0.4,0.9v0h-1.6v0c0.1-0.6,0.2-1,0.4-1.4c0.2-0.4,0.5-0.7,0.9-0.9
				c0.4-0.2,0.8-0.3,1.3-0.3c0.6,0,1,0.1,1.4,0.3c0.4,0.2,0.7,0.5,0.9,0.8c0.2,0.4,0.3,0.8,0.3,1.3v0c0,0.4-0.1,0.8-0.2,1.1
				s-0.3,0.7-0.6,1.1l-2.5,3.2h3.3v1.5h-5.3V739.7z"/>
		</g>
	</g>
	<g>
		<path class="st5" d="M873.1,760c-0.6,0-1.1,0.2-1.4,0.5c-0.3,0.3-0.5,0.8-0.5,1.4v0.8c0,0.6,0.2,1,0.5,1.4s0.8,0.5,1.4,0.5
			s1.1-0.2,1.4-0.5s0.5-0.8,0.5-1.4v-0.8c0-0.6-0.2-1-0.5-1.4S873.7,760,873.1,760z M873.6,762.6c0,0.2,0,0.3-0.1,0.4
			c-0.1,0.1-0.2,0.2-0.3,0.2c-0.2,0-0.3,0-0.4-0.1c-0.1-0.1-0.1-0.2-0.1-0.4v-0.8c0-0.2,0-0.3,0.1-0.4c0.1-0.1,0.2-0.1,0.4-0.1
			c0.2,0,0.3,0,0.3,0.1c0.1,0.1,0.1,0.2,0.1,0.4V762.6z"/>
		<path class="st5" d="M882.1,767.1c-0.1,0.3-0.2,0.6-0.4,0.9s-0.4,0.4-0.7,0.6c-0.3,0.1-0.5,0.2-0.8,0.2c-0.4,0-0.7-0.1-1-0.3
			s-0.5-0.4-0.7-0.7c-0.2-0.3-0.2-0.7-0.2-1.2v-2.8c0-0.4,0.1-0.8,0.2-1.2c0.2-0.3,0.4-0.6,0.7-0.8s0.6-0.3,1-0.3
			c0.3,0,0.6,0.1,0.8,0.2c0.3,0.1,0.5,0.3,0.7,0.6c0.2,0.2,0.3,0.5,0.4,0.9h1.7c-0.1-0.7-0.3-1.3-0.7-1.8c-0.3-0.5-0.7-0.9-1.3-1.1
			c-0.5-0.3-1.1-0.4-1.7-0.4c-0.7,0-1.4,0.2-1.9,0.5c-0.5,0.3-1,0.8-1.3,1.3c-0.3,0.6-0.4,1.3-0.4,2v2.8c0,0.8,0.1,1.5,0.4,2
			s0.7,1,1.3,1.3c0.5,0.3,1.2,0.5,1.9,0.5c0.6,0,1.2-0.1,1.7-0.4c0.5-0.3,0.9-0.6,1.3-1.1c0.3-0.5,0.6-1.1,0.7-1.8H882.1z"/>
		<path class="st5" d="M907.1,763.5c0.6,0,1-0.5,1-1c0-0.6-0.5-1-1-1H900v-1.4h4c0.6,0,1-0.5,1-1c0-0.6-0.5-1-1-1h-4v-1.4h7.1
			c0.6,0,1-0.5,1-1c0-0.6-0.5-1-1-1H900v-2.4c0-3.1-2.6-5.7-5.7-5.7c-3.1,0-5.7,2.5-5.7,5.7v31.3c-3,1.9-4.9,5.3-4.9,8.9
			c0,5.8,4.8,10.6,10.6,10.6c5.8,0,10.6-4.8,10.6-10.6c0-3.6-1.9-7-4.9-8.9v-6.1h7.1c0.6,0,1-0.5,1-1s-0.5-1-1-1H900v-1.4h4
			c0.6,0,1-0.5,1-1c0-0.6-0.5-1-1-1h-4v-1.4h7.1c0.6,0,1-0.5,1-1c0-0.6-0.5-1-1-1H900V767h4c0.6,0,1-0.5,1-1c0-0.6-0.5-1-1-1h-4
			v-1.4H907.1z M902.9,792.4c0,4.7-3.8,8.5-8.5,8.5s-8.5-3.8-8.5-8.5c0-3.1,1.7-5.9,4.4-7.4c0.3-0.2,0.5-0.5,0.5-0.9v-31.9
			c0-2,1.6-3.6,3.6-3.6c2,0,3.6,1.6,3.6,3.6V784c0,0.4,0.2,0.7,0.5,0.9C901.2,786.4,902.9,789.3,902.9,792.4z"/>
		<path class="st5" d="M895.5,786.3v-34.1c0-0.7-0.5-1.2-1.2-1.2c-0.7,0-1.2,0.5-1.2,1.2v34.1c0,0,0,0.1,0,0.1c-2.8,0.6-4.9,3-4.9,6
			c0,3.4,2.7,6.1,6.1,6.1c3.4,0,6.1-2.7,6.1-6.1c0-3-2.1-5.4-4.9-6C895.5,786.3,895.5,786.3,895.5,786.3z"/>
	</g>
	
		<rect x="895.6" y="582.1" transform="matrix(3.474528e-03 1 -1 3.474528e-03 1605.2991 -276.2574)" class="st3" width="91.2" height="170.5"/>
	<g>
		<g>
			<path class="st2" d="M963,625h6.6v1.5H963V625z M965.5,625.7h1.5v8.5h-1.5V625.7z"/>
			<path class="st2" d="M972,634.2h-1.5V625h1.5V634.2z"/>
			<path class="st2" d="M972.8,625h6.6v1.5h-6.6V625z M975.4,625.7h1.5v8.5h-1.5V625.7z"/>
			<path class="st2" d="M984.6,630.2v1.4h-4.4v-1.4H984.6z"/>
			<path class="st2" d="M987.1,633.6c-0.5-0.5-0.7-1.1-0.7-1.9v-4.2c0-0.8,0.2-1.5,0.7-1.9c0.5-0.5,1.1-0.7,2-0.7
				c0.9,0,1.5,0.2,2,0.7s0.7,1.1,0.7,1.9v4.2c0,0.8-0.2,1.5-0.7,1.9c-0.5,0.5-1.1,0.7-2,0.7C988.2,634.3,987.5,634.1,987.1,633.6z
				 M990,632.5c0.2-0.2,0.3-0.6,0.3-1v-3.8c0-0.4-0.1-0.8-0.3-1s-0.5-0.4-0.9-0.4s-0.7,0.1-0.9,0.4s-0.3,0.6-0.3,1v3.8
				c0,0.4,0.1,0.8,0.3,1s0.5,0.4,0.9,0.4S989.8,632.7,990,632.5z"/>
			<path class="st2" d="M995.9,634.2h-1.5v-7.5l-1.2,0.6v-1.6l1.3-0.7h1.4V634.2z"/>
		</g>
	</g>
	<g>
		<path class="st5" d="M874.2,653c-0.6,0-1.1,0.2-1.4,0.5s-0.5,0.8-0.5,1.4v0.8c0,0.6,0.2,1,0.5,1.4s0.8,0.5,1.4,0.5
			c0.6,0,1.1-0.2,1.4-0.5c0.3-0.3,0.5-0.8,0.5-1.4v-0.8c0-0.6-0.2-1-0.5-1.4C875.3,653.1,874.8,653,874.2,653z M874.7,655.6
			c0,0.2,0,0.3-0.1,0.4c-0.1,0.1-0.2,0.2-0.3,0.2c-0.2,0-0.3,0-0.4-0.1s-0.1-0.2-0.1-0.4v-0.8c0-0.2,0-0.3,0.1-0.4
			c0.1-0.1,0.2-0.1,0.4-0.1c0.2,0,0.3,0,0.3,0.1c0.1,0.1,0.1,0.2,0.1,0.4V655.6z"/>
		<path class="st5" d="M883.2,660.1c-0.1,0.3-0.2,0.6-0.4,0.9s-0.4,0.4-0.7,0.6c-0.3,0.1-0.5,0.2-0.8,0.2c-0.4,0-0.7-0.1-1-0.3
			c-0.3-0.2-0.5-0.4-0.7-0.7c-0.2-0.3-0.2-0.7-0.2-1.2v-2.8c0-0.4,0.1-0.8,0.2-1.2c0.2-0.3,0.4-0.6,0.7-0.8s0.6-0.3,1-0.3
			c0.3,0,0.6,0.1,0.8,0.2c0.3,0.1,0.5,0.3,0.7,0.6c0.2,0.2,0.3,0.5,0.4,0.9h1.7c-0.1-0.7-0.3-1.3-0.7-1.8c-0.3-0.5-0.7-0.9-1.3-1.1
			c-0.5-0.3-1.1-0.4-1.7-0.4c-0.7,0-1.4,0.2-1.9,0.5c-0.5,0.3-1,0.8-1.3,1.3c-0.3,0.6-0.4,1.3-0.4,2v2.8c0,0.8,0.1,1.5,0.4,2
			s0.7,1,1.3,1.3c0.5,0.3,1.2,0.5,1.9,0.5c0.6,0,1.2-0.1,1.7-0.4c0.5-0.3,0.9-0.6,1.3-1.1c0.3-0.5,0.6-1.1,0.7-1.8H883.2z"/>
		<path class="st5" d="M908.2,656.5c0.6,0,1-0.5,1-1c0-0.6-0.5-1-1-1h-7.1V653h4c0.6,0,1-0.5,1-1c0-0.6-0.5-1-1-1h-4v-1.4h7.1
			c0.6,0,1-0.5,1-1c0-0.6-0.5-1-1-1h-7.1v-2.4c0-3.1-2.6-5.7-5.7-5.7c-3.1,0-5.7,2.6-5.7,5.7v31.3c-3,1.9-4.9,5.3-4.9,8.9
			c0,5.8,4.8,10.6,10.6,10.6s10.6-4.8,10.6-10.6c0-3.6-1.9-7-4.9-8.9v-6.1h7.1c0.6,0,1-0.5,1-1c0-0.6-0.5-1-1-1h-7.1v-1.4h4
			c0.6,0,1-0.5,1-1c0-0.6-0.5-1-1-1h-4v-1.4h7.1c0.6,0,1-0.5,1-1c0-0.6-0.5-1-1-1h-7.1v-1.4h4c0.6,0,1-0.5,1-1c0-0.6-0.5-1-1-1h-4
			v-1.4H908.2z M904,685.3c0,4.7-3.8,8.5-8.5,8.5s-8.5-3.8-8.5-8.5c0-3.1,1.7-5.9,4.4-7.4c0.3-0.2,0.5-0.5,0.5-0.9v-31.9
			c0-2,1.6-3.6,3.6-3.6s3.6,1.6,3.6,3.6V677c0,0.4,0.2,0.7,0.5,0.9C902.3,679.4,904,682.2,904,685.3z"/>
		<path class="st5" d="M896.7,679.2v-34.1c0-0.7-0.5-1.2-1.2-1.2s-1.2,0.5-1.2,1.2v34.1c0,0,0,0.1,0,0.1c-2.8,0.6-4.9,3-4.9,6
			c0,3.4,2.7,6.1,6.1,6.1s6.1-2.7,6.1-6.1c0-3-2.1-5.4-4.9-6C896.7,679.3,896.7,679.2,896.7,679.2z"/>
	</g>
	<g>
		<path class="st5" d="M1027.8,198.2c-0.6,0-1.1,0.2-1.4,0.5c-0.3,0.3-0.5,0.8-0.5,1.4v0.8c0,0.6,0.2,1,0.5,1.4
			c0.3,0.3,0.8,0.5,1.4,0.5c0.6,0,1.1-0.2,1.4-0.5c0.3-0.3,0.5-0.8,0.5-1.4V200c0-0.6-0.2-1-0.5-1.4
			C1028.9,198.3,1028.4,198.2,1027.8,198.2z M1028.3,200.8c0,0.2,0,0.3-0.1,0.4c-0.1,0.1-0.2,0.2-0.3,0.2c-0.2,0-0.3,0-0.4-0.1
			s-0.1-0.2-0.1-0.4V200c0-0.2,0-0.3,0.1-0.4c0.1-0.1,0.2-0.1,0.4-0.1c0.2,0,0.3,0,0.3,0.1s0.1,0.2,0.1,0.4V200.8z"/>
		<path class="st5" d="M1036.8,205.3c-0.1,0.3-0.2,0.6-0.4,0.9c-0.2,0.2-0.4,0.4-0.7,0.6c-0.3,0.1-0.5,0.2-0.8,0.2
			c-0.4,0-0.7-0.1-1-0.3c-0.3-0.2-0.5-0.4-0.7-0.7c-0.2-0.3-0.2-0.7-0.2-1.2v-2.8c0-0.4,0.1-0.8,0.2-1.2c0.2-0.3,0.4-0.6,0.7-0.8
			c0.3-0.2,0.6-0.3,1-0.3c0.3,0,0.6,0.1,0.8,0.2c0.3,0.1,0.5,0.3,0.7,0.6s0.3,0.5,0.4,0.9h1.7c-0.1-0.7-0.3-1.3-0.7-1.8
			c-0.3-0.5-0.7-0.9-1.3-1.1c-0.5-0.3-1.1-0.4-1.7-0.4c-0.7,0-1.4,0.2-1.9,0.5c-0.5,0.3-1,0.8-1.3,1.3c-0.3,0.6-0.4,1.3-0.4,2v2.8
			c0,0.8,0.1,1.5,0.4,2c0.3,0.6,0.7,1,1.3,1.3c0.5,0.3,1.2,0.5,1.9,0.5c0.6,0,1.2-0.1,1.7-0.4c0.5-0.3,0.9-0.6,1.3-1.1
			c0.3-0.5,0.6-1.1,0.7-1.8H1036.8z"/>
		<path class="st5" d="M1061.8,201.7c0.6,0,1-0.5,1-1c0-0.6-0.5-1-1-1h-7.1v-1.4h4c0.6,0,1-0.5,1-1s-0.5-1-1-1h-4v-1.4h7.1
			c0.6,0,1-0.5,1-1c0-0.6-0.5-1-1-1h-7.1v-2.4c0-3.1-2.6-5.7-5.7-5.7s-5.7,2.6-5.7,5.7v31.3c-3,1.9-4.9,5.3-4.9,8.9
			c0,5.8,4.8,10.6,10.6,10.6s10.6-4.8,10.6-10.6c0-3.6-1.9-7-4.9-8.9v-6.1h7.1c0.6,0,1-0.5,1-1c0-0.6-0.5-1-1-1h-7.1V212h4
			c0.6,0,1-0.5,1-1s-0.5-1-1-1h-4v-1.4h7.1c0.6,0,1-0.5,1-1c0-0.6-0.5-1-1-1h-7.1v-1.4h4c0.6,0,1-0.5,1-1s-0.5-1-1-1h-4v-1.4H1061.8
			z M1057.6,230.5c0,4.7-3.8,8.5-8.5,8.5c-4.7,0-8.5-3.8-8.5-8.5c0-3.1,1.7-5.9,4.4-7.4c0.3-0.2,0.5-0.5,0.5-0.9v-31.9
			c0-2,1.6-3.6,3.6-3.6s3.6,1.6,3.6,3.6v31.9c0,0.4,0.2,0.7,0.5,0.9C1055.9,224.6,1057.6,227.4,1057.6,230.5z"/>
		<path class="st5" d="M1050.2,224.4v-34.1c0-0.7-0.5-1.2-1.2-1.2c-0.7,0-1.2,0.5-1.2,1.2v34.1c0,0,0,0.1,0,0.1
			c-2.8,0.6-4.9,3-4.9,6c0,3.4,2.7,6.1,6.1,6.1c3.4,0,6.1-2.7,6.1-6.1c0-3-2.1-5.4-4.9-6C1050.2,224.5,1050.2,224.5,1050.2,224.4z"
			/>
	</g>
</g>
<g id="Tubo_vermelho">
	<path class="st4" d="M1836,541.5"/>
	<path class="st6" d="M1116.5,990c0,0,0,0-45.5,0H891c0,0-17.5,0.5-18-9s18-9,18-9h180c0,0,18.5,0.5,18-9s-18-9-18-9H891
		c0,0-17.5,0.5-18-9s18-9,18-9h180c0,0,18.5,0.5,18-9s-18-9-18-9H891c0,0-17.5,0.5-18-9s18-9,18-9h180c0,0,18.5,0.5,18-9s-18-9-18-9
		H891c0,0-17.5,0.5-18-9s18-9,18-9h180c0,0,18.5,0.5,18-9s-18-9-18-9H891c0,0-17.5,0.5-18-9s18-9,18-9h180c0,0,18.5,0.5,18-9
		s-18-9-18-9H855H648"/>
	<line class="st6" x1="540" y1="810" x2="432" y2="810"/>
	<polyline class="st6" points="567,810 584.6,810 648,810 648,990 584.6,990 567,990 	"/>
	<line class="st6" x1="432" y1="990" x2="539.8" y2="990"/>
</g>
<g id="Tubo_azul">
	<path class="st9" d="M610.5,820.8c6.7,0,12.2-4.7,12.2-10.5s-5.5-10.5-12.2-10.5"/>
	<path class="st10" d="M612,702h256.5V565.6V171c0,0-0.4-18.5,7.1-18s7.1,18,7.1,18v144c0,0-0.4,17.5,7.1,18s7.1-18,7.1-18V171
		c0,0-0.4-18.5,7.1-18s7.1,18,7.1,18v144c0,0-0.4,17.5,7.1,18s7.1-18,7.1-18V171c0,0-0.4-18.5,7.1-18s7.1,18,7.1,18v144
		c0,0-0.4,17.5,7.1,18s7.1-18,7.1-18V171c0,0-0.4-18.5,7.1-18s7.1,18,7.1,18v144c0,0-0.4,17.5,7.1,18s7.1-18,7.1-18V171
		c0,0-0.4-18.5,7.1-18s7.1,18,7.1,18v144v275.6l0,7.4h4h146.1H1581h75"/>
	<polyline class="st11" points="612,820.8 612,882 581.2,882 567,882 	"/>
	<line class="st11" x1="612" y1="702" x2="612" y2="799.8"/>
	<line class="st11" x1="432" y1="882" x2="539.9" y2="882"/>
	<path class="st11" d="M432,918"/>
	<line class="st11" x1="567" y1="702" x2="612" y2="702"/>
	<path class="st11" d="M558,702"/>
	<line class="st11" x1="432" y1="702" x2="538.6" y2="702"/>
	<path class="st11" d="M963,459"/>
</g>
<g id="tubo_amarelo">
	<path class="st12" d="M1837.4,542c0,0-1.9,0-1.9-2s0-9,0-9"/>
	<polyline class="st13" points="946,336.1 946,531.5 1835.5,531.5 	"/>
	<line class="st7" x1="1667.5" y1="854.4" x2="1643.5" y2="854.4"/>
	<line class="st7" x1="1643.5" y1="827.1" x2="1667.5" y2="827.1"/>
	<ellipse class="st7" cx="1655.5" cy="841.4" rx="12" ry="13.1"/>
	<g>
		<g>
			<path class="st2" d="M1649.5,838.2h1.6l2.1,6.7l2.1-6.7h1.6l-3,9.2h-1.3L1649.5,838.2z"/>
			<path class="st2" d="M1657.7,844.7l3-6.4h1.7l-2.9,6.4h4.3v1.4h-6.1V844.7z M1661.6,842h1.5v5.4h-1.5V842z"/>
		</g>
	</g>
	<line class="st7" x1="1848.8" y1="727.9" x2="1824.8" y2="727.9"/>
	<line class="st7" x1="1824.8" y1="700.7" x2="1848.8" y2="700.7"/>
	<ellipse class="st7" cx="1836.8" cy="714.9" rx="12" ry="13.1"/>
	<g>
		<g>
			<path class="st2" d="M1830.8,711.7h1.6l2.1,6.7l2.1-6.7h1.6l-3,9.2h-1.3L1830.8,711.7z"/>
			<path class="st2" d="M1840.5,720.7c-0.4-0.2-0.7-0.5-0.9-0.9c-0.2-0.4-0.4-0.8-0.4-1.4v0h1.5v0c0,0.3,0.2,0.6,0.4,0.8
				c0.2,0.2,0.5,0.3,0.8,0.3c0.4,0,0.6-0.1,0.8-0.4c0.2-0.2,0.3-0.6,0.3-1v-0.8c0-0.4-0.1-0.8-0.3-1c-0.2-0.2-0.5-0.4-0.8-0.4
				c-0.2,0-0.5,0.1-0.6,0.2s-0.3,0.3-0.5,0.5h-1.4v-5.1h4.8v1.5h-3.3v1.9c0.1-0.1,0.3-0.2,0.5-0.3c0.2-0.1,0.4-0.1,0.6-0.1
				c0.5,0,0.9,0.1,1.3,0.3c0.4,0.2,0.6,0.5,0.8,1c0.2,0.4,0.3,0.9,0.3,1.5v0.8c0,0.6-0.1,1.1-0.3,1.5c-0.2,0.4-0.5,0.7-0.9,1
				c-0.4,0.2-0.9,0.3-1.4,0.3C1841.3,721,1840.9,720.9,1840.5,720.7z"/>
		</g>
	</g>
	<line class="st7" x1="1667.8" y1="726.9" x2="1643.8" y2="726.9"/>
	<line class="st7" x1="1643.8" y1="699.7" x2="1667.8" y2="699.7"/>
	<ellipse class="st7" cx="1655.8" cy="713.9" rx="12" ry="13.1"/>
	<g>
		<g>
			<path class="st2" d="M1649.8,710.7h1.6l2.1,6.7l2.1-6.7h1.6l-3,9.2h-1.3L1649.8,710.7z"/>
			<path class="st2" d="M1659.2,719.7c-0.4-0.2-0.7-0.5-0.9-1c-0.2-0.4-0.3-0.9-0.3-1.5v0c0-0.3,0-0.7,0.1-1.1
				c0.1-0.4,0.2-0.7,0.4-1.1c0-0.1,0.1-0.1,0.1-0.2s0.1-0.1,0.1-0.2l1.9-4h1.7l-2.3,4.6l-0.2-0.2c0.1-0.2,0.3-0.4,0.5-0.5
				s0.4-0.2,0.7-0.2c0.5,0,0.9,0.1,1.3,0.3c0.4,0.2,0.6,0.5,0.8,0.9c0.2,0.4,0.3,0.9,0.3,1.5v0c0,0.6-0.1,1.1-0.3,1.5
				c-0.2,0.4-0.5,0.7-0.9,1c-0.4,0.2-0.9,0.3-1.4,0.3C1660.1,720,1659.6,719.9,1659.2,719.7z M1661.4,718.3c0.2-0.2,0.3-0.5,0.3-0.9
				v0c0-0.4-0.1-0.8-0.3-1c-0.2-0.2-0.5-0.4-0.9-0.4c-0.3,0-0.6,0.1-0.8,0.4c-0.2,0.2-0.3,0.6-0.3,1v0c0,0.4,0.1,0.7,0.3,0.9
				c0.2,0.2,0.5,0.3,0.8,0.3C1661,718.6,1661.3,718.5,1661.4,718.3z"/>
		</g>
	</g>
	<path class="st12" d="M1836,598v-2.5c0,0,9-0.5,9.5-9s-9.5-9-9.5-9s9-0.5,9.5-9s-9.5-9-9.5-9s9-0.5,9.5-9s-9.5-9-9.5-9"/>
	<line class="st7" x1="1284.5" y1="709.8" x2="1284.5" y2="685.8"/>
	<line class="st7" x1="1311.8" y1="685.8" x2="1311.8" y2="709.8"/>
	<ellipse class="st7" cx="1297.9" cy="697.8" rx="13.1" ry="12"/>
	<line class="st7" x1="1236" y1="777.6" x2="1212" y2="777.6"/>
	<line class="st7" x1="1212" y1="750.3" x2="1236" y2="750.3"/>
	<ellipse class="st7" cx="1223.9" cy="764.5" rx="12" ry="13.1"/>
	<line class="st7" x1="1836" y1="728.1" x2="1836" y2="771.5"/>
	<polyline class="st7" points="1836,598 1836,641.7 1836,677.5 1836,700.7 	"/>
	<polyline class="st7" points="1836,796.2 1836,771.5 1656,771.5 1656,726.5 	"/>
	<polyline class="st7" points="1656,925.9 1836,925.9 1836,895.1 	"/>
	<polyline class="st7" points="1656,829.5 1656,796.2 1836,796.2 1836,820.9 1800,820.9 1818,895.1 1836,895.1 1854,895.1 
		1872,820.9 1836,820.9 	"/>
	<path class="st7" d="M1836.8,700.7"/>
	<path class="st14" d="M1655.8,700.8l0.2-23.3V657c0,0,8.5-0.5,9-9s-9-9-9-9s8.5-0.5,9-9s-9-9-9-9s8.5-0.5,9-9s-9-9-9-9v-4.4"/>
	<polyline class="st7" points="1595.7,925.9 1656,925.9 1656,878.5 1656,854.4 	"/>
	<line class="st7" x1="1512" y1="925.9" x2="1565.7" y2="925.9"/>
	<polyline class="st7" points="1368,925.9 1440,925.9 1440,913.6 1512,913.6 1512,938.3 1440,938.3 1440,925.9 	"/>
	<polyline class="st7" points="1311.8,697.4 1323,697.5 1368,697.4 1368,925.9 1338.5,925.9 1327,925.9 	"/>
	<polyline class="st7" points="1224,697.8 1269,697.6 1284.8,697.6 	"/>
	<polyline class="st7" points="1260,925.9 1289.5,925.9 1300.9,925.9 	"/>
	<polyline class="st7" points="1223.9,750.3 1224,740.5 1224,697.8 1158.3,697.8 1136.7,697.9 1136.7,990 1116.5,990 	"/>
	<polyline class="st7" points="1224,820.9 1188,820.9 1188,944.5 1260,944.5 1260,820.9 1224,820.9 1224,789.5 1224,777.6 	"/>
</g>
</svg>
