<?xml version="1.0" encoding="utf-8"?>
<!-- Generator: Adobe Illustrator 27.1.1, SVG Export Plug-In . SVG Version: 6.00 Build 0)  -->
<svg version="1.1" id="hélice" xmlns="http://www.w3.org/2000/svg" xmlns:xlink="http://www.w3.org/1999/xlink" x="0px" y="0px"
	 viewBox="0 0 1920 1080" style="enable-background:new 0 0 1920 1080;" xml:space="preserve">
<style type="text/css">
	.st0{fill:#FFFFFF;}
</style>
<g>
	<g>
		<path class="st0" d="M64.5,70.19c-2.73,0-5.27-1.34-6.8-3.59c-2.56-3.75-1.59-8.88,2.15-11.44c1.37-0.94,2.98-1.44,4.63-1.44
			c2.72,0,5.27,1.34,6.8,3.59c1.24,1.81,1.7,4,1.29,6.16c-0.41,2.16-1.63,4.03-3.45,5.27C67.76,69.69,66.16,70.19,64.5,70.19
			L64.5,70.19z"/>
		<path class="st0" d="M64.49,54.23c2.56,0,4.95,1.26,6.39,3.37c2.4,3.52,1.5,8.34-2.02,10.74c-1.29,0.88-2.8,1.35-4.35,1.35
			c-2.56,0-4.95-1.26-6.39-3.37c-2.4-3.52-1.5-8.34,2.02-10.74C61.43,54.69,62.93,54.23,64.49,54.23 M64.49,53.23
			c-1.7,0-3.41,0.49-4.92,1.52c-3.98,2.72-5,8.15-2.28,12.13c1.69,2.47,4.43,3.81,7.22,3.81c1.7,0,3.41-0.49,4.92-1.52
			c3.98-2.72,5-8.15,2.28-12.13C70.01,54.56,67.27,53.23,64.49,53.23L64.49,53.23z"/>
	</g>
	<g>
		<path class="st0" d="M68.66,127.32c-3.51,0-5.95-0.92-7.26-2.73c-0.4-0.55-0.27-1.31,0.87-7.07c0.38-1.9,0.86-4.33,1.45-7.46
			l0.03-0.18c0.37-1.93,0.55-2.91,0.59-3.13c0.39-2.5,1.13-9.22-0.42-17.58c-0.81-4.35-2.14-8.63-3.96-12.72l0.6-0.42l-0.91-0.33
			c-0.87-0.32-1.72-0.71-2.51-1.19l-0.25-0.15l-0.25,0.14c-8.85,5.05-18.28,9.19-28.03,12.3c-5.8,1.85-9.85,2.75-12.4,2.75
			c-1.2,0-1.94-0.19-2.55-0.41C1.83,85.14-2.41,61.77,1.83,44.36c1.07-4.38,3.9-16.02,10.15-16.66c0.04,0,0.09-0.01,0.13-0.01
			c0.64,0,1.59,0.83,5.56,4.3c1.46,1.28,3.32,2.91,5.73,4.99c1.58,1.37,2.37,2.05,2.55,2.19c1.97,1.59,7.42,5.59,15.43,8.42
			c4.17,1.48,8.54,2.47,12.99,2.94l0.06,0.73l0.74-0.62c0.38-0.32,0.78-0.62,1.18-0.9c0.35-0.24,0.7-0.45,1.06-0.66l0.84-0.47
			l-0.65-0.31c0.07-10.1,1.2-20.25,3.36-30.17C63.3,7.46,65,5.25,66.42,4.01C69,1.75,72.58,0.61,77.04,0.61
			c10.32,0,24.67,6.55,34.11,15.56c3.26,3.12,11.92,11.39,9.35,17.12c-0.28,0.62-1,0.89-6.56,2.78c-1.83,0.62-4.18,1.42-7.19,2.47
			l-0.16,0.06c-1.87,0.65-2.8,0.98-3.01,1.06c-2.36,0.91-8.55,3.63-15.01,9.15c-3.37,2.87-6.4,6.16-9.04,9.79l-0.5-0.24l0.11,0.93
			c0.16,0.91,0.24,1.85,0.23,2.78l0,0.29l0.25,0.15c8.8,5.14,17.1,11.24,24.68,18.13c8.08,7.34,9.15,9.93,9.51,11.77
			c2.42,12.26-15.7,27.62-32.89,32.66C78.19,125.85,73.15,127.32,68.66,127.32C68.66,127.32,68.66,127.32,68.66,127.32z
			 M64.64,48.96c-2.6,0-5.12,0.78-7.28,2.25c-2.85,1.95-4.77,4.89-5.41,8.28c-0.64,3.39,0.08,6.83,2.03,9.68
			c2.41,3.53,6.4,5.63,10.68,5.63c2.6,0,5.12-0.78,7.28-2.25c5.88-4.02,7.4-12.07,3.38-17.96C72.91,51.07,68.92,48.96,64.64,48.96z"
			/>
		<path class="st0" d="M77.03,0.11l0,1c10.21,0,24.41,6.49,33.77,15.43c3.19,3.05,11.67,11.14,9.24,16.55
			c-0.2,0.45-1.61,0.92-6.27,2.51c-1.83,0.63-4.18,1.42-7.22,2.48c-2.01,0.7-2.93,1.02-3.16,1.11c-2.38,0.92-8.63,3.67-15.16,9.24
			c-3.29,2.81-6.27,6.02-8.87,9.54l-1.07-0.5l0.34,1.9c0.16,0.88,0.23,1.79,0.22,2.68l-0.01,0.58l0.5,0.29
			c8.77,5.12,17.04,11.2,24.59,18.06c7.97,7.24,9.01,9.73,9.36,11.5c2.37,12.01-15.55,27.1-32.54,32.08
			c-2.69,0.79-7.68,2.25-12.1,2.25c-3.34,0-5.65-0.85-6.86-2.52c-0.29-0.4,0-1.85,0.96-6.69c0.38-1.9,0.86-4.33,1.45-7.46
			c0.4-2.12,0.59-3.08,0.63-3.33c0.39-2.53,1.14-9.31-0.42-17.74c-0.79-4.26-2.07-8.44-3.82-12.45l1.05-0.73l-1.82-0.66
			c-0.84-0.3-1.66-0.69-2.43-1.14l-0.5-0.3l-0.51,0.29c-8.82,5.03-18.22,9.16-27.93,12.26c-5.75,1.84-9.75,2.73-12.24,2.73
			c-1.13,0-1.82-0.18-2.39-0.38C2.24,84.75-1.88,61.68,2.31,44.48c1.04-4.29,3.82-15.68,9.72-16.28c0.03,0,0.05,0,0.08,0
			c0.46,0,1.85,1.22,5.23,4.18c1.46,1.28,3.32,2.91,5.74,4.99c1.63,1.4,2.37,2.04,2.56,2.2c1.99,1.6,7.49,5.64,15.58,8.51
			c4.08,1.45,8.35,2.43,12.7,2.92l0.11,1.29l1.48-1.24c0.37-0.31,0.75-0.6,1.14-0.87c0.31-0.21,0.65-0.42,1.03-0.64l1.68-0.95
			l-1.24-0.58c0.09-9.96,1.22-19.97,3.34-29.75c2.29-10.52,3.93-12.67,5.28-13.85c2.49-2.18,5.95-3.28,10.29-3.28L77.03,0.11
			 M64.66,75.3c2.7,0,5.32-0.81,7.56-2.34c2.96-2.02,4.95-5.08,5.62-8.6c0.66-3.52-0.09-7.09-2.11-10.05
			c-2.5-3.66-6.65-5.85-11.09-5.85c-2.7,0-5.32,0.81-7.56,2.34c-6.11,4.17-7.68,12.54-3.51,18.65C56.08,73.12,60.22,75.3,64.66,75.3
			 M77.03,0.11c-4.32,0-8.13,1.07-10.95,3.53c-1.43,1.25-3.21,3.39-5.6,14.39c-2.63,12.1-3.33,22.63-3.37,30.6l0.07,0.03
			c-0.37,0.21-0.74,0.43-1.1,0.68c-0.43,0.29-0.83,0.6-1.22,0.93l-0.02-0.19c-5.58-0.55-10.1-1.82-13.29-2.95
			c-8.56-3.03-14.04-7.34-15.28-8.34c-0.18-0.14-0.97-0.82-2.54-2.18c-9.46-8.16-10.5-9.41-11.62-9.41c-0.06,0-0.12,0-0.18,0.01
			c-6.6,0.67-9.46,12.43-10.59,17.04C-2.8,61.25,0.92,85.35,13.5,89.65c0.66,0.23,1.45,0.43,2.72,0.43c2.18,0,5.77-0.61,12.55-2.78
			c11.77-3.76,21.21-8.4,28.12-12.35c0.83,0.49,1.7,0.9,2.6,1.23l-0.14,0.1c2.32,5.11,3.47,9.65,4.09,12.99
			c1.65,8.93,0.66,15.82,0.42,17.41c-0.04,0.23-0.23,1.25-0.62,3.29c-2.46,12.93-2.95,13.93-2.24,14.92
			c1.59,2.21,4.49,2.94,7.67,2.94c4.56,0,9.7-1.5,12.38-2.29c16.8-4.92,35.82-20.19,33.24-33.23c-0.37-1.86-1.33-4.47-9.66-12.05
			c-9.14-8.31-17.89-14.17-24.76-18.19c0.01-0.96-0.07-1.92-0.24-2.87l0.06,0.03c3.26-4.56,6.62-7.83,9.2-10.03
			c6.91-5.9,13.37-8.49,14.87-9.07c0.22-0.08,1.2-0.43,3.16-1.11c12.43-4.33,13.54-4.41,14.04-5.52c2.72-6.05-6.03-14.41-9.46-17.69
			C102.39,7.12,88.08,0.11,77.03,0.11L77.03,0.11z M64.66,74.3c-3.96,0-7.86-1.89-10.27-5.41c-3.87-5.66-2.41-13.39,3.25-17.26
			c2.14-1.46,4.58-2.17,7-2.17c3.96,0,7.86,1.89,10.27,5.41c3.87,5.66,2.41,13.39-3.25,17.26C69.52,73.6,67.08,74.3,64.66,74.3
			L64.66,74.3z"/>
	</g>
</g>
</svg>
