<?xml version="1.0" encoding="utf-8"?>
<!-- Generator: Adobe Illustrator 27.1.1, SVG Export Plug-In . SVG Version: 6.00 Build 0)  -->
<svg version="1.1" id="hélice" xmlns="http://www.w3.org/2000/svg" xmlns:xlink="http://www.w3.org/1999/xlink" x="0px" y="0px"
	 viewBox="0 0 1920 1080" style="enable-background:new 0 0 1920 1080;" xml:space="preserve">
<style type="text/css">
	.st0{fill:#FFFFFF;}
</style>
<g>
	<g>
		<path class="st0" d="M54.47,72.69c-0.76,0-1.51-0.11-2.25-0.31c-2.11-0.6-3.87-1.99-4.94-3.91c-1.07-1.92-1.33-4.14-0.73-6.26
			c1-3.53,4.25-5.99,7.91-5.99c0.76,0,1.51,0.11,2.25,0.31c4.37,1.24,6.91,5.8,5.67,10.16C61.39,70.23,58.13,72.69,54.47,72.69
			C54.47,72.69,54.47,72.69,54.47,72.69z"/>
		<path class="st0" d="M54.46,56.73c0.71,0,1.42,0.1,2.11,0.29c4.1,1.16,6.49,5.44,5.33,9.54c-0.94,3.31-3.99,5.62-7.43,5.62
			c-0.71,0-1.42-0.1-2.11-0.29c-4.1-1.16-6.49-5.44-5.33-9.54C47.97,59.04,51.03,56.73,54.46,56.73 M54.46,55.73
			c-3.81,0-7.31,2.51-8.39,6.35c-1.31,4.64,1.38,9.46,6.02,10.78c0.8,0.23,1.6,0.33,2.38,0.33c3.81,0,7.31-2.51,8.39-6.35
			c1.31-4.64-1.38-9.46-6.02-10.78C56.05,55.84,55.25,55.73,54.46,55.73L54.46,55.73z"/>
	</g>
	<g>
		<path class="st0" d="M47.51,127.41c-9.82,0-21.98-3.9-30.98-9.93c-3.75-2.51-13.69-9.18-12.14-15.27
			c0.17-0.66,0.83-1.04,5.99-3.86c1.7-0.93,3.87-2.12,6.65-3.66c1.86-1.03,2.74-1.52,2.94-1.64c2.17-1.3,7.8-5.04,13.23-11.58
			c2.83-3.41,5.26-7.17,7.23-11.19l0.7,0.19l-0.33-0.91c-0.32-0.87-0.55-1.78-0.7-2.69l-0.05-0.29l-0.27-0.1
			c-9.55-3.56-18.77-8.15-27.4-13.64C3.17,46.98,1.68,44.62,1,42.86c-4.48-11.67,10.74-29.9,26.83-37.8
			c3.02-1.49,9.32-4.58,14.34-4.58c2.13,0,3.8,0.57,4.95,1.7c0.49,0.47,0.49,1.24,0.35,7.12c-0.05,1.94-0.1,4.41-0.16,7.59
			l-0.01,0.35c-0.03,1.85-0.05,2.79-0.04,3.01c0.04,2.53,0.46,9.28,3.42,17.25c1.54,4.15,3.58,8.14,6.07,11.86l-0.53,0.52l0.95,0.17
			c0.49,0.09,0.97,0.2,1.45,0.33c0.41,0.11,0.8,0.25,1.19,0.4l0.91,0.34l-0.19-0.7c7.8-6.42,16.32-12.05,25.32-16.75
			c8.53-4.45,11.61-4.97,13.18-4.97c0.48,0,0.86,0.05,1.15,0.1c12.34,1.96,20.52,24.25,19.32,42.13c-0.3,4.5-1.11,16.45-7.15,18.15
			c-0.1,0.03-0.19,0.04-0.27,0.04c-0.65,0-2.01-0.83-6.07-3.3c-1.65-1.01-3.77-2.3-6.5-3.93c-1.79-1.08-2.69-1.61-2.89-1.73
			c-2.21-1.23-8.26-4.24-16.64-5.66c-3.11-0.53-6.3-0.8-9.48-0.8c-1.27,0-2.55,0.04-3.83,0.13l-0.14-0.53l-0.64,0.67
			c-0.6,0.71-1.27,1.37-1.99,1.96l-0.23,0.18l0.05,0.29c1.69,10.05,2.33,20.33,1.89,30.56c-0.46,10.91-1.76,13.38-2.95,14.84
			C59.71,125.47,54.47,127.41,47.51,127.41C47.51,127.41,47.51,127.41,47.51,127.41z M54.62,51.61c-5.75,0-10.86,3.87-12.42,9.4
			c-1.94,6.85,2.05,14.01,8.91,15.95c1.15,0.33,2.34,0.49,3.53,0.49c5.75,0,10.86-3.87,12.42-9.4C69,61.2,65,54.04,58.15,52.1
			C57,51.77,55.81,51.61,54.62,51.61z"/>
		<path class="st0" d="M42.18,0.99c2,0,3.55,0.52,4.6,1.56c0.35,0.34,0.31,1.83,0.2,6.75c-0.05,1.94-0.1,4.42-0.16,7.61
			c-0.04,2.15-0.05,3.13-0.05,3.38c0.04,2.56,0.47,9.37,3.45,17.41c1.5,4.06,3.49,7.96,5.9,11.62l-0.92,0.91l1.9,0.34
			c0.47,0.08,0.94,0.19,1.4,0.32c0.36,0.1,0.74,0.23,1.15,0.38l1.81,0.68l-0.35-1.32c7.71-6.31,16.11-11.86,24.99-16.49
			c8.43-4.4,11.43-4.91,12.95-4.91c0.44,0,0.79,0.05,1.07,0.09c12.09,1.92,20.09,23.94,18.9,41.61c-0.3,4.4-1.08,16.1-6.79,17.7
			c-0.08,0.02-0.11,0.02-0.14,0.02c-0.51,0-2.17-1.01-5.81-3.23c-1.66-1.01-3.77-2.3-6.52-3.95c-1.84-1.1-2.67-1.6-2.89-1.72
			c-2.24-1.24-8.35-4.28-16.8-5.72c-3.14-0.53-6.36-0.81-9.56-0.81c-1.14,0-2.3,0.03-3.45,0.1l-0.3-1.14l-1.24,1.48
			c-0.58,0.69-1.22,1.32-1.92,1.89l-0.45,0.37l0.1,0.57c1.68,10.01,2.32,20.26,1.89,30.46c-0.46,10.76-1.7,13.15-2.84,14.55
			c-3.62,4.47-10.04,5.41-14.78,5.41c-9.73,0-21.78-3.87-30.7-9.85c-3.67-2.46-13.4-8.99-11.93-14.73c0.12-0.47,1.43-1.19,5.75-3.55
			c1.7-0.93,3.88-2.12,6.66-3.66c1.88-1.05,2.74-1.52,2.95-1.65c2.19-1.32,7.88-5.09,13.35-11.69c2.76-3.33,5.15-7,7.11-10.92
			l1.24,0.34l-0.66-1.82c-0.31-0.84-0.53-1.72-0.68-2.6l-0.09-0.57l-0.55-0.2c-9.51-3.55-18.7-8.12-27.31-13.59
			c-9.09-5.77-10.54-8.05-11.18-9.73C-2.92,31.26,12.16,13.32,28.05,5.51C31.05,4.05,37.27,0.99,42.18,0.99 M54.63,77.95
			c5.97,0,11.28-4.02,12.91-9.76c0.98-3.45,0.55-7.07-1.19-10.2c-1.75-3.13-4.61-5.39-8.06-6.37c-1.2-0.34-2.43-0.51-3.66-0.51
			c-5.97,0-11.28,4.02-12.91,9.76c-2.02,7.12,2.13,14.55,9.25,16.57C52.17,77.78,53.4,77.95,54.63,77.95 M42.18-0.01
			c-5.14,0-11.53,3.14-14.56,4.63C11.9,12.34-4.23,30.63,0.54,43.04c0.68,1.77,2.08,4.18,11.58,10.22
			c10.43,6.62,20.04,10.9,27.5,13.68c0.15,0.95,0.4,1.88,0.72,2.78l-0.17-0.05c-2.44,5.05-5.19,8.85-7.35,11.46
			c-5.8,6.99-11.73,10.65-13.1,11.47c-0.2,0.12-1.11,0.62-2.93,1.63c-11.51,6.39-12.59,6.66-12.89,7.84
			c-1.64,6.43,8.4,13.17,12.35,15.81c8.82,5.92,21.1,10.02,31.25,10.02c6.58,0,12.27-1.72,15.56-5.78c1.2-1.48,2.58-3.89,3.06-15.14
			c0.52-12.35-0.58-22.81-1.9-30.66c0.74-0.6,1.43-1.28,2.05-2.02l0.02,0.07c1.47-0.11,2.87-0.16,4.2-0.16
			c3.75,0,6.93,0.37,9.4,0.79c8.95,1.53,15.08,4.83,16.49,5.61c0.2,0.11,1.09,0.65,2.88,1.72c9.98,5.98,11.74,7.31,12.82,7.31
			c0.14,0,0.27-0.02,0.41-0.06c6.39-1.79,7.2-13.86,7.52-18.6c1.17-17.47-6.61-40.58-19.74-42.66c-0.36-0.06-0.75-0.1-1.23-0.1
			c-1.98,0-5.35,0.81-13.41,5.02c-10.98,5.73-19.51,11.94-25.65,17.01L60,50.32c-0.4-0.15-0.81-0.29-1.23-0.41
			c-0.5-0.14-1-0.26-1.5-0.34l0.13-0.13c-3.15-4.64-5.07-8.92-6.25-12.1C48,28.83,47.8,21.87,47.77,20.26
			c0-0.23,0.01-1.27,0.05-3.35c0.22-13.16,0.53-14.23-0.34-15.08C46.11,0.5,44.25-0.01,42.18-0.01L42.18-0.01z M54.63,76.95
			c-1.12,0-2.26-0.15-3.39-0.47c-6.6-1.87-10.43-8.74-8.56-15.34c1.55-5.47,6.53-9.04,11.94-9.04c1.12,0,2.26,0.15,3.39,0.47
			c6.6,1.87,10.43,8.74,8.56,15.34C65.03,73.38,60.05,76.95,54.63,76.95L54.63,76.95z"/>
	</g>
</g>
</svg>
