<?xml version="1.0" encoding="utf-8"?>
<!-- Generator: Adobe Illustrator 27.1.1, SVG Export Plug-In . SVG Version: 6.00 Build 0)  -->
<svg version="1.1" id="hélice" xmlns="http://www.w3.org/2000/svg" xmlns:xlink="http://www.w3.org/1999/xlink" x="0px" y="0px"
	 viewBox="0 0 1920 1080" style="enable-background:new 0 0 1920 1080;" xml:space="preserve">
<style type="text/css">
	.st0{fill:#FFFFFF;}
</style>
<g>
	<g>
		<path class="st0" d="M65.87,72.6c-1.44,0-2.86-0.38-4.11-1.1c-3.93-2.27-5.28-7.31-3.01-11.24c1.47-2.54,4.2-4.12,7.13-4.12
			c1.44,0,2.86,0.38,4.11,1.1c1.9,1.1,3.27,2.87,3.83,5c0.57,2.12,0.28,4.34-0.82,6.24C71.54,71.02,68.81,72.6,65.87,72.6
			C65.87,72.6,65.87,72.6,65.87,72.6z"/>
		<path class="st0" d="M65.89,56.64c1.35,0,2.68,0.36,3.86,1.04c3.69,2.13,4.96,6.87,2.83,10.56c-1.38,2.38-3.94,3.87-6.7,3.87
			c-1.35,0-2.68-0.36-3.86-1.04c-3.69-2.13-4.96-6.87-2.83-10.56C60.56,58.12,63.13,56.64,65.89,56.64 M65.89,55.64
			c-3.02,0-5.95,1.57-7.57,4.37c-2.41,4.18-0.98,9.51,3.2,11.92c1.37,0.79,2.88,1.17,4.36,1.17c3.02,0,5.95-1.57,7.57-4.37
			c2.41-4.18,0.98-9.51-3.2-11.92C68.87,56.02,67.37,55.64,65.89,55.64L65.89,55.64z"/>
	</g>
	<g>
		<path class="st0" d="M92.95,122.83c-1.01,0-1.94-0.22-2.74-0.66c-0.6-0.32-0.81-1.06-2.28-6.75c-0.48-1.88-1.1-4.28-1.92-7.35
			l-0.03-0.13c-0.51-1.94-0.77-2.91-0.84-3.13c-0.73-2.42-2.97-8.8-7.99-15.66c-2.61-3.57-5.66-6.85-9.07-9.75l0.36-0.63l-0.96,0.1
			c-0.5,0.05-1,0.08-1.49,0.08c-0.43,0-0.86-0.02-1.28-0.06l-0.29-0.03l-0.17,0.24c-5.79,8.38-12.5,16.19-19.94,23.23
			c-7.94,7.5-10.59,8.37-12.46,8.59c-0.46,0.06-0.94,0.08-1.41,0.08C18.32,111,5.31,92.33,1.77,75.64
			c-0.94-4.41-3.42-16.13,1.94-19.41c0.16-0.1,0.3-0.15,0.58-0.15c0.79,0,2.44,0.46,6.41,1.56c1.87,0.52,4.25,1.18,7.33,2.01
			c2.02,0.55,3.03,0.82,3.25,0.87c1.97,0.46,6.09,1.24,11.5,1.24c2.02,0,4.06-0.11,6.06-0.32c4.4-0.47,8.77-1.48,12.98-2.98
			l0.37,0.63l0.4-0.88c0.21-0.45,0.43-0.9,0.68-1.32c0.21-0.36,0.44-0.71,0.67-1.05l0.55-0.79l-0.72,0
			c-4.31-9.14-7.69-18.78-10.04-28.65c-2.53-10.62-1.95-13.36-1.21-15.09c3.56-8.3,16.18-11.26,26.8-11.26
			c6.46,0,13.13,1.01,18.78,2.85c4.29,1.4,15.68,5.1,15.84,11.38c0.02,0.68-0.52,1.23-4.71,5.35c-1.38,1.36-3.15,3.09-5.41,5.34
			c-1.48,1.47-2.22,2.21-2.38,2.38c-1.73,1.84-6.13,6.97-9.57,14.75c-1.79,4.05-3.1,8.33-3.91,12.73l-0.55,0l0.5,0.79
			c0.54,0.75,1.02,1.56,1.41,2.4l0.12,0.26l0.29,0.02c10.16,0.82,20.28,2.73,30.09,5.65c10.46,3.12,12.54,4.99,13.67,6.49
			c7.49,10-2.19,31.69-15.51,43.68C105.09,116.74,98.33,122.83,92.95,122.83C92.95,122.83,92.95,122.83,92.95,122.83z M66,51.31
			c-4.61,0-8.9,2.48-11.2,6.46c-3.56,6.17-1.44,14.09,4.73,17.65c1.96,1.13,4.19,1.73,6.45,1.73c4.61,0,8.9-2.48,11.2-6.46
			c1.73-2.99,2.18-6.47,1.29-9.8c-0.89-3.33-3.03-6.12-6.02-7.85C70.49,51.91,68.26,51.31,66,51.31z"/>
		<path class="st0" d="M69.33,0.55c6.41,0,13.02,1,18.62,2.83c4.2,1.37,15.34,4.99,15.5,10.92c0.01,0.49-1.05,1.53-4.56,4.98
			c-1.38,1.36-3.15,3.09-5.43,5.36c-1.51,1.5-2.2,2.19-2.37,2.37c-1.75,1.86-6.19,7.05-9.66,14.89c-1.75,3.96-3.05,8.14-3.87,12.44
			l-1.18,0.01l1.13,1.57c0.53,0.73,0.98,1.51,1.36,2.32l0.25,0.53l0.58,0.05c10.12,0.82,20.21,2.72,29.99,5.63
			c10.32,3.08,12.33,4.87,13.41,6.31c7.33,9.8-2.28,31.16-15.44,43.01c-2.85,2.56-9.52,8.56-14.7,8.56c-0.93,0-1.77-0.2-2.5-0.6
			c-0.43-0.23-0.8-1.67-2.03-6.44c-0.48-1.88-1.1-4.28-1.92-7.36c-0.55-2.08-0.8-3.03-0.87-3.26c-0.74-2.45-3.01-8.89-8.06-15.81
			c-2.55-3.5-5.52-6.71-8.84-9.57l0.63-1.12l-1.92,0.2c-0.48,0.05-0.96,0.07-1.44,0.07c-0.41,0-0.83-0.02-1.24-0.05l-0.58-0.05
			l-0.33,0.48c-5.77,8.35-12.46,16.14-19.87,23.15c-7.82,7.4-10.39,8.25-12.18,8.46c-0.45,0.05-0.9,0.08-1.35,0.08
			c-11.88,0-24.67-18.46-28.17-34.96c-0.92-4.32-3.35-15.78,1.71-18.88c0.09-0.05,0.14-0.08,0.32-0.08c0.72,0,2.46,0.48,6.28,1.54
			c1.87,0.52,4.25,1.18,7.34,2.02c2.07,0.56,3.01,0.82,3.25,0.87c1.99,0.47,6.15,1.25,11.61,1.25c2.04,0,4.1-0.11,6.11-0.33
			c4.3-0.46,8.58-1.43,12.71-2.87l0.65,1.11l0.79-1.76c0.2-0.44,0.42-0.87,0.65-1.28c0.19-0.32,0.4-0.66,0.65-1.02l1.1-1.59
			l-1.37,0.01c-4.23-9.02-7.55-18.53-9.87-28.26c-2.49-10.48-1.95-13.12-1.24-14.77C46.44,3.43,58.86,0.55,69.33,0.55 M65.98,77.66
			c4.79,0,9.24-2.57,11.63-6.71c1.79-3.1,2.27-6.72,1.34-10.18s-3.15-6.36-6.25-8.15c-2.04-1.18-4.36-1.8-6.7-1.8
			c-4.79,0-9.24,2.57-11.63,6.71c-3.7,6.41-1.5,14.63,4.91,18.33C61.32,77.03,63.63,77.66,65.98,77.66 M69.33-0.45
			c-12.26,0-23.84,3.57-27.26,11.56c-0.75,1.75-1.42,4.45,1.18,15.4c2.87,12.05,6.79,21.84,10.21,29.04l0.07,0
			c-0.24,0.35-0.48,0.71-0.7,1.09c-0.26,0.45-0.49,0.9-0.7,1.37l-0.09-0.16c-5.27,1.92-9.89,2.73-13.26,3.1
			c-2.14,0.23-4.16,0.32-6.01,0.32c-5.95,0-10.19-0.94-11.38-1.22c-0.22-0.05-1.23-0.32-3.24-0.87c-9.8-2.65-12.61-3.59-13.86-3.59
			c-0.37,0-0.6,0.08-0.84,0.23c-5.66,3.47-3.15,15.3-2.16,19.94c3.5,16.49,16.41,35.75,29.15,35.75c0.49,0,0.98-0.03,1.47-0.09
			c1.89-0.23,4.56-0.99,12.74-8.73c8.98-8.49,15.48-16.76,20-23.31c0.44,0.04,0.89,0.06,1.33,0.06c0.52,0,1.03-0.03,1.54-0.08
			l-0.09,0.15c4.3,3.6,7.31,7.2,9.31,9.93c5.36,7.33,7.45,13.98,7.91,15.51c0.07,0.22,0.33,1.23,0.87,3.24
			c3.38,12.72,3.37,13.84,4.44,14.42c0.93,0.5,1.93,0.72,2.98,0.72c5.57,0,12.4-6.15,15.37-8.82
			c13.02-11.71,23.54-33.71,15.58-44.35c-1.14-1.52-3.14-3.46-13.93-6.67c-11.84-3.53-22.26-5.03-30.2-5.67
			c-0.4-0.87-0.89-1.7-1.46-2.49l0.07,0c0.97-5.52,2.58-9.93,3.95-13.03c3.67-8.31,8.38-13.44,9.48-14.61
			c0.16-0.17,0.9-0.9,2.37-2.37c9.33-9.29,10.3-9.84,10.27-11.06C104.27,7.64,92.77,3.89,88.26,2.42
			C82.5,0.55,75.81-0.45,69.33-0.45L69.33-0.45z M65.98,76.66c-2.11,0-4.24-0.54-6.2-1.67c-5.94-3.43-7.98-11.03-4.55-16.97
			c2.3-3.98,6.48-6.21,10.77-6.21c2.11,0,4.24,0.54,6.2,1.67c5.94,3.43,7.98,11.03,4.55,16.97C74.44,74.43,70.27,76.66,65.98,76.66
			L65.98,76.66z"/>
	</g>
</g>
</svg>
